<svg width="2310" height="25" viewBox="0 0 2310 25" fill="none" xmlns="http://www.w3.org/2000/svg">
<path d="M15.0559 18.68C15.0559 18.8706 14.9753 19.8093 14.8139 21.496C14.6526 23.1826 14.5646 24.048 14.5499 24.092H13.1419C13.1126 23.5493 13.0466 22.7573 12.9439 21.716C12.8559 20.6746 12.7899 20.1026 12.7459 20H2.69192C2.63325 20.0586 2.48658 20.616 2.25192 21.672C2.03192 22.728 1.86325 23.542 1.74592 24.114H0.315918C0.330585 23.5273 0.359918 22.6473 0.403918 21.474C0.462585 20.3153 0.513918 19.384 0.557918 18.68H2.16392C2.51592 18.24 2.89725 17.5213 3.30792 16.524C3.73325 15.512 4.11458 14.148 4.45192 12.432C4.78925 10.7013 4.95792 8.67731 4.95792 6.35997V5.01797L2.69192 4.75397V3.65397H15.1439V4.75397L13.0759 5.01797V18.68H15.0559ZM6.32192 6.49197C6.33658 8.57464 6.21192 10.4666 5.94792 12.168C5.68392 13.8546 5.36859 15.248 5.00192 16.348C4.64992 17.448 4.32725 18.2253 4.03392 18.68H10.7439L10.7659 4.92997H6.32192V6.49197Z" fill="white"/>
<path d="M18.9142 5.01797L17.1102 4.75397V3.65397H28.3082L28.6162 7.06397H27.3622L26.7242 4.92997L21.2682 4.79797V11.002L24.9422 10.936L25.2502 9.10997H26.4602V14.17H25.2502L24.9422 12.278L21.2682 12.212V18.768L27.4722 18.548L28.6382 15.776L29.9362 16.172L29.2982 20H17.0882V18.922L18.9142 18.702V5.01797Z" fill="white"/>
<path d="M36.9182 6.99797C36.9182 9.63797 36.7642 11.97 36.4562 13.994C36.1629 16.0033 35.7156 17.5286 35.1142 18.57C34.8062 19.098 34.4542 19.4866 34.0582 19.736C33.6622 19.9853 33.1929 20.11 32.6502 20.11C31.9462 20.11 31.4256 20.0733 31.0882 20L30.9342 18.218C31.2716 18.262 31.8216 18.284 32.5842 18.284C32.8629 18.284 33.1049 18.2253 33.3102 18.108C33.5156 17.976 33.7062 17.756 33.8822 17.448C34.9969 15.7173 35.5542 12.1533 35.5542 6.75597V5.01797L33.0242 4.75397V3.65397H45.7402V4.75397L43.6942 5.01797V18.702L45.8722 18.922V20H39.0962V18.922L41.3622 18.68L41.3842 5.01797H36.9182V6.99797Z" fill="white"/>
<path d="M54.2835 20.242C52.7875 20.242 51.5188 19.8973 50.4775 19.208C49.4508 18.5186 48.6735 17.5506 48.1455 16.304C47.6175 15.0426 47.3535 13.5833 47.3535 11.926C47.3535 10.2393 47.6688 8.75797 48.2995 7.48197C48.9448 6.20597 49.8248 5.22331 50.9395 4.53397C52.0541 3.82997 53.3081 3.47797 54.7015 3.47797C56.9895 3.47797 58.7348 4.20397 59.9375 5.65597C61.1548 7.09331 61.7635 9.08797 61.7635 11.64C61.7635 13.356 61.4335 14.8666 60.7735 16.172C60.1281 17.4626 59.2335 18.4673 58.0895 19.186C56.9601 19.89 55.6915 20.242 54.2835 20.242ZM54.5695 4.62197C53.1468 4.62197 52.0248 5.24531 51.2035 6.49197C50.3821 7.72397 49.9715 9.53531 49.9715 11.926C49.9715 14.126 50.3675 15.8713 51.1595 17.162C51.9661 18.438 53.0881 19.076 54.5255 19.076C55.9335 19.076 57.0481 18.438 57.8695 17.162C58.7055 15.886 59.1235 14.0526 59.1235 11.662C59.1235 9.44731 58.7275 7.72397 57.9355 6.49197C57.1435 5.24531 56.0215 4.62197 54.5695 4.62197Z" fill="white"/>
<path d="M84.1811 3.65397V4.75397L82.3111 5.03997V18.68L84.3571 18.922V20H78.1531V18.922L79.9791 18.68V4.95197H72.9391V18.702L74.9851 18.922V20H68.8251V18.922L70.6071 18.702V5.01797L68.7371 4.75397V3.65397H84.1811Z" fill="white"/>
<path d="M92.8909 20.242C91.3949 20.242 90.1262 19.8973 89.0849 19.208C88.0582 18.5186 87.2809 17.5506 86.7529 16.304C86.2249 15.0426 85.9609 13.5833 85.9609 11.926C85.9609 10.2393 86.2762 8.75797 86.9069 7.48197C87.5522 6.20597 88.4322 5.22331 89.5469 4.53397C90.6616 3.82997 91.9155 3.47797 93.3089 3.47797C95.5969 3.47797 97.3422 4.20397 98.5449 5.65597C99.7622 7.09331 100.371 9.08797 100.371 11.64C100.371 13.356 100.041 14.8666 99.3809 16.172C98.7356 17.4626 97.8409 18.4673 96.6969 19.186C95.5676 19.89 94.2989 20.242 92.8909 20.242ZM93.1769 4.62197C91.7542 4.62197 90.6322 5.24531 89.8109 6.49197C88.9896 7.72397 88.5789 9.53531 88.5789 11.926C88.5789 14.126 88.9749 15.8713 89.7669 17.162C90.5736 18.438 91.6956 19.076 93.1329 19.076C94.5409 19.076 95.6556 18.438 96.4769 17.162C97.3129 15.886 97.7309 14.0526 97.7309 11.662C97.7309 9.44731 97.3349 7.72397 96.5429 6.49197C95.7509 5.24531 94.6289 4.62197 93.1769 4.62197Z" fill="white"/>
<path d="M104.698 5.01797L102.3 4.75397V3.65397H108.13L111.232 13.554L111.958 16.348L112.618 13.554L115.698 3.65397H121.484V4.75397L119.064 5.01797L120.824 18.68L122.738 18.922V20H116.402V18.922L118.404 18.702L117.414 8.82397L116.952 4.57797L116.028 7.74597L112.354 19.252H110.924L107.36 8.71397L106.062 4.55597L105.666 8.82397L104.786 18.702L106.964 18.922V20H101.222V18.922L103.092 18.702L104.698 5.01797Z" fill="white"/>
<path d="M130.553 20.242C129.057 20.242 127.788 19.8973 126.747 19.208C125.72 18.5186 124.943 17.5506 124.415 16.304C123.887 15.0426 123.623 13.5833 123.623 11.926C123.623 10.2393 123.938 8.75797 124.569 7.48197C125.214 6.20597 126.094 5.22331 127.209 4.53397C128.324 3.82997 129.578 3.47797 130.971 3.47797C133.259 3.47797 135.004 4.20397 136.207 5.65597C137.424 7.09331 138.033 9.08797 138.033 11.64C138.033 13.356 137.703 14.8666 137.043 16.172C136.398 17.4626 135.503 18.4673 134.359 19.186C133.23 19.89 131.961 20.242 130.553 20.242ZM130.839 4.62197C129.416 4.62197 128.294 5.24531 127.473 6.49197C126.652 7.72397 126.241 9.53531 126.241 11.926C126.241 14.126 126.637 15.8713 127.429 17.162C128.236 18.438 129.358 19.076 130.795 19.076C132.203 19.076 133.318 18.438 134.139 17.162C134.975 15.886 135.393 14.0526 135.393 11.662C135.393 9.44731 134.997 7.72397 134.205 6.49197C133.413 5.24531 132.291 4.62197 130.839 4.62197Z" fill="white"/>
<path d="M162.666 18.68C162.475 20.8066 162.277 22.6106 162.072 24.092H160.664C160.635 23.5493 160.583 22.7573 160.51 21.716C160.437 20.6893 160.378 20.1173 160.334 20H139.588V18.922L141.656 18.702V5.01797L139.83 4.75397V3.65397H145.924V4.75397L143.966 5.01797V18.702H149.752V5.01797L148.058 4.75397V3.65397H153.734V4.75397L152.018 5.01797V18.702H157.694V5.01797L156.044 4.75397V3.65397H161.83V4.75397L160.026 5.01797V18.68H162.666Z" fill="white"/>
<path d="M170.593 3.65397V4.75397L168.437 5.01797V16.062L170.241 13.356L176.577 5.61197V5.01797L174.619 4.75397V3.65397H180.669V4.75397L178.909 5.01797V18.702L180.779 18.922V20H174.641V18.922L176.577 18.702V7.50397L174.949 10.056L168.437 17.91V18.702L170.505 18.922V20H164.301V18.922L166.127 18.702V5.01797L164.367 4.75397V3.65397H170.593Z" fill="white"/>
<path d="M195.432 16.612C195.373 16.7293 195.197 17.1473 194.904 17.866C194.611 18.57 194.193 19.142 193.65 19.582C193.107 20.022 192.477 20.242 191.758 20.242C191.377 20.242 190.995 20.2053 190.614 20.132C190.247 20.0733 189.947 19.9926 189.712 19.89V18.328L191.274 18.35C191.949 18.35 192.447 18.218 192.77 17.954C193.093 17.6753 193.371 17.184 193.606 16.48L188.062 5.01797L186.874 4.75397V3.65397H192.814V4.75397L190.658 5.01797L194.2 12.674L194.86 14.676L195.586 12.652L198.38 5.01797L196.51 4.75397V3.65397H201.218V4.75397L200.074 5.01797L195.432 16.612Z" fill="white"/>
<path d="M207.243 4.81997L203.459 4.95197L202.689 9.54997H201.237L201.611 3.65397H215.317L215.581 9.54997H214.195L213.469 4.95197L209.663 4.81997V18.702L212.787 18.922V20H204.383V18.922L207.243 18.702V4.81997Z" fill="white"/>
<path d="M223.774 20.242C222.278 20.242 221.009 19.8973 219.968 19.208C218.941 18.5186 218.164 17.5506 217.636 16.304C217.108 15.0426 216.844 13.5833 216.844 11.926C216.844 10.2393 217.159 8.75797 217.79 7.48197C218.435 6.20597 219.315 5.22331 220.43 4.53397C221.544 3.82997 222.798 3.47797 224.192 3.47797C226.48 3.47797 228.225 4.20397 229.428 5.65597C230.645 7.09331 231.254 9.08797 231.254 11.64C231.254 13.356 230.924 14.8666 230.264 16.172C229.618 17.4626 228.724 18.4673 227.58 19.186C226.45 19.89 225.182 20.242 223.774 20.242ZM224.06 4.62197C222.637 4.62197 221.515 5.24531 220.694 6.49197C219.872 7.72397 219.462 9.53531 219.462 11.926C219.462 14.126 219.858 15.8713 220.65 17.162C221.456 18.438 222.578 19.076 224.016 19.076C225.424 19.076 226.538 18.438 227.36 17.162C228.196 15.886 228.614 14.0526 228.614 11.662C228.614 9.44731 228.218 7.72397 227.426 6.49197C226.634 5.24531 225.512 4.62197 224.06 4.62197Z" fill="white"/>
<path d="M248.451 3.65397V4.75397L246.581 5.03997V18.68L248.627 18.922V20H242.423V18.922L244.249 18.68V4.95197H237.209V18.702L239.255 18.922V20H233.095V18.922L234.877 18.702V5.01797L233.007 4.75397V3.65397H248.451Z" fill="white"/>
<path d="M255.862 3.52197H258.282L263.628 18.702L264.992 18.922V20H259.184V18.922L261.01 18.702L259.976 15.446H253.552L252.518 18.702L254.41 18.922V20H249.196V18.922L250.56 18.702L255.862 3.52197ZM257.248 7.04197L256.698 5.10597L256.17 7.08597L253.948 14.148H259.558L257.248 7.04197Z" fill="white"/>
<path d="M273.515 10.936C273.661 9.39597 274.079 8.06131 274.769 6.93197C275.458 5.80264 276.324 4.94464 277.365 4.35797C278.421 3.75664 279.558 3.46331 280.775 3.47797C282.212 3.47797 283.437 3.81531 284.449 4.48997C285.476 5.14997 286.253 6.08131 286.781 7.28397C287.309 8.47197 287.573 9.85797 287.573 11.442C287.573 13.2166 287.257 14.7713 286.627 16.106C286.011 17.426 285.16 18.438 284.075 19.142C283.004 19.846 281.801 20.198 280.467 20.198C278.985 20.198 277.724 19.8753 276.683 19.23C275.641 18.57 274.85 17.646 274.307 16.458C273.764 15.2553 273.486 13.8546 273.471 12.256H269.951V18.68L271.843 18.922V20H265.793V18.922L267.597 18.68V5.01797L265.837 4.75397V3.65397H271.755V4.75397L269.929 5.01797V10.936H273.515ZM280.621 4.66597C279.228 4.66597 278.113 5.27464 277.277 6.49197C276.441 7.70931 276.023 9.53531 276.023 11.97C276.023 14.0966 276.419 15.798 277.211 17.074C278.018 18.35 279.147 18.988 280.599 18.988C281.992 18.988 283.07 18.372 283.833 17.14C284.61 15.8933 284.999 14.06 284.999 11.64C284.999 9.51331 284.617 7.81931 283.855 6.55797C283.092 5.29664 282.014 4.66597 280.621 4.66597Z" fill="white"/>
<path d="M312.283 18.68C312.092 20.8066 311.894 22.6106 311.689 24.092H310.281C310.252 23.5493 310.2 22.7573 310.127 21.716C310.054 20.6893 309.995 20.1173 309.951 20H289.205V18.922L291.273 18.702V5.01797L289.447 4.75397V3.65397H295.541V4.75397L293.583 5.01797V18.702H299.369V5.01797L297.675 4.75397V3.65397H303.351V4.75397L301.635 5.01797V18.702H307.311V5.01797L305.661 4.75397V3.65397H311.447V4.75397L309.643 5.01797V18.68H312.283Z" fill="white"/>
<path d="M320.21 3.65397V4.75397L318.054 5.01797V16.062L319.858 13.356L326.194 5.61197V5.01797L324.236 4.75397V3.65397H330.286V4.75397L328.526 5.01797V18.702L330.396 18.922V20H324.258V18.922L326.194 18.702V7.50397L324.566 10.056L318.054 17.91V18.702L320.122 18.922V20H313.918V18.922L315.744 18.702V5.01797L313.984 4.75397V3.65397H320.21Z" fill="white"/>
<path d="M335.01 5.01797L332.612 4.75397V3.65397H338.442L341.544 13.554L342.27 16.348L342.93 13.554L346.01 3.65397H351.796V4.75397L349.376 5.01797L351.136 18.68L353.05 18.922V20H346.714V18.922L348.716 18.702L347.726 8.82397L347.264 4.57797L346.34 7.74597L342.666 19.252H341.236L337.672 8.71397L336.374 4.55597L335.978 8.82397L335.098 18.702L337.276 18.922V20H331.534V18.922L333.404 18.702L335.01 5.01797Z" fill="white"/>
<path d="M382.014 13.774H360.872V12.146H382.014V13.774Z" fill="white"/>
<path d="M404.825 18.68C404.825 18.8706 404.745 19.8093 404.583 21.496C404.422 23.1826 404.334 24.048 404.319 24.092H402.911C402.882 23.5493 402.816 22.7573 402.713 21.716C402.625 20.6746 402.559 20.1026 402.515 20H392.461C392.403 20.0586 392.256 20.616 392.021 21.672C391.801 22.728 391.633 23.542 391.515 24.114H390.085C390.1 23.5273 390.129 22.6473 390.173 21.474C390.232 20.3153 390.283 19.384 390.327 18.68H391.933C392.285 18.24 392.667 17.5213 393.077 16.524C393.503 15.512 393.884 14.148 394.221 12.432C394.559 10.7013 394.727 8.67731 394.727 6.35997V5.01797L392.461 4.75397V3.65397H404.913V4.75397L402.845 5.01797V18.68H404.825ZM396.091 6.49197C396.106 8.57464 395.981 10.4666 395.717 12.168C395.453 13.8546 395.138 15.248 394.771 16.348C394.419 17.448 394.097 18.2253 393.803 18.68H400.513L400.535 4.92997H396.091V6.49197Z" fill="white"/>
<path d="M408.684 5.01797L406.88 4.75397V3.65397H418.078L418.386 7.06397H417.132L416.494 4.92997L411.038 4.79797V11.002L414.712 10.936L415.02 9.10997H416.23V14.17H415.02L414.712 12.278L411.038 12.212V18.768L417.242 18.548L418.408 15.776L419.706 16.172L419.068 20H406.858V18.922L408.684 18.702V5.01797Z" fill="white"/>
<path d="M426.688 6.99797C426.688 9.63797 426.534 11.97 426.226 13.994C425.932 16.0033 425.485 17.5286 424.884 18.57C424.576 19.098 424.224 19.4866 423.828 19.736C423.432 19.9853 422.962 20.11 422.42 20.11C421.716 20.11 421.195 20.0733 420.858 20L420.704 18.218C421.041 18.262 421.591 18.284 422.354 18.284C422.632 18.284 422.874 18.2253 423.08 18.108C423.285 17.976 423.476 17.756 423.652 17.448C424.766 15.7173 425.324 12.1533 425.324 6.75597V5.01797L422.794 4.75397V3.65397H435.51V4.75397L433.464 5.01797V18.702L435.642 18.922V20H428.866V18.922L431.132 18.68L431.154 5.01797H426.688V6.99797Z" fill="white"/>
<path d="M444.053 20.242C442.557 20.242 441.288 19.8973 440.247 19.208C439.22 18.5186 438.443 17.5506 437.915 16.304C437.387 15.0426 437.123 13.5833 437.123 11.926C437.123 10.2393 437.438 8.75797 438.069 7.48197C438.714 6.20597 439.594 5.22331 440.709 4.53397C441.824 3.82997 443.078 3.47797 444.471 3.47797C446.759 3.47797 448.504 4.20397 449.707 5.65597C450.924 7.09331 451.533 9.08797 451.533 11.64C451.533 13.356 451.203 14.8666 450.543 16.172C449.898 17.4626 449.003 18.4673 447.859 19.186C446.73 19.89 445.461 20.242 444.053 20.242ZM444.339 4.62197C442.916 4.62197 441.794 5.24531 440.973 6.49197C440.152 7.72397 439.741 9.53531 439.741 11.926C439.741 14.126 440.137 15.8713 440.929 17.162C441.736 18.438 442.858 19.076 444.295 19.076C445.703 19.076 446.818 18.438 447.639 17.162C448.475 15.886 448.893 14.0526 448.893 11.662C448.893 9.44731 448.497 7.72397 447.705 6.49197C446.913 5.24531 445.791 4.62197 444.339 4.62197Z" fill="white"/>
<path d="M460.355 5.01797L458.639 4.75397V3.65397H461.565C462.093 3.65397 462.613 3.63197 463.127 3.58797C463.919 3.52931 464.667 3.49997 465.371 3.49997C467.497 3.51464 469.001 3.91064 469.881 4.68797C470.761 5.46531 471.201 6.63864 471.201 8.20797C471.201 9.38131 470.929 10.4006 470.387 11.266C469.844 12.1313 469.089 12.7913 468.121 13.246C467.167 13.7006 466.067 13.928 464.821 13.928C464.395 13.928 463.963 13.9206 463.523 13.906C463.083 13.8766 462.811 13.8546 462.709 13.84V18.68L465.723 18.922V20H458.529V18.922L460.355 18.702V5.01797ZM462.709 12.63C463.119 12.7033 463.823 12.74 464.821 12.74C465.979 12.74 466.918 12.388 467.637 11.684C468.37 10.98 468.737 9.82864 468.737 8.22997C468.737 6.96864 468.421 6.06664 467.791 5.52397C467.16 4.96664 466.177 4.68797 464.843 4.68797C464.373 4.68797 463.875 4.71731 463.347 4.77597C463.024 4.80531 462.811 4.81997 462.709 4.81997V12.63Z" fill="white"/>
<path d="M480.186 16.612C480.127 16.7293 479.951 17.1473 479.658 17.866C479.364 18.57 478.946 19.142 478.404 19.582C477.861 20.022 477.23 20.242 476.512 20.242C476.13 20.242 475.749 20.2053 475.368 20.132C475.001 20.0733 474.7 19.9926 474.466 19.89V18.328L476.028 18.35C476.702 18.35 477.201 18.218 477.524 17.954C477.846 17.6753 478.125 17.184 478.36 16.48L472.816 5.01797L471.628 4.75397V3.65397H477.568V4.75397L475.412 5.01797L478.954 12.674L479.614 14.676L480.34 12.652L483.134 5.01797L481.264 4.75397V3.65397H485.972V4.75397L484.828 5.01797L480.186 16.612Z" fill="white"/>
<path d="M494.175 11.442C494.762 11.662 495.349 12.1533 495.935 12.916C496.522 13.664 497.226 14.6833 498.047 15.974C498.605 16.8833 499.037 17.5506 499.345 17.976C499.653 18.3866 499.917 18.6213 500.137 18.68L500.973 18.922V20H498.245C497.908 20 497.527 19.714 497.101 19.142C496.691 18.5553 496.155 17.668 495.495 16.48C494.747 15.1453 494.124 14.1333 493.625 13.444C493.127 12.7546 492.65 12.41 492.195 12.41H490.787V18.68L492.745 18.944V20H486.717V18.9L488.499 18.68V5.01797L486.717 4.75397V3.65397H492.613V4.75397L490.787 5.01797V11.354H492.679L497.123 5.01797L495.275 4.75397V3.65397H500.687V4.75397L498.949 5.01797L494.175 11.442Z" fill="white"/>
<path d="M514.644 20.242C513.031 20.242 511.652 19.8973 510.508 19.208C509.379 18.504 508.521 17.5213 507.934 16.26C507.347 14.9986 507.054 13.5173 507.054 11.816C507.054 10.1733 507.399 8.72131 508.088 7.45997C508.777 6.19864 509.723 5.22331 510.926 4.53397C512.129 3.82997 513.478 3.47797 514.974 3.47797C516.103 3.47797 517.46 3.65397 519.044 4.00597L519.77 4.13797L519.55 8.09797H518.076L517.526 5.30397C517.321 5.12797 516.961 4.98131 516.448 4.86397C515.949 4.73197 515.333 4.66597 514.6 4.66597C513.661 4.66597 512.825 4.93731 512.092 5.47997C511.359 6.00797 510.779 6.79264 510.354 7.83397C509.943 8.87531 509.738 10.122 509.738 11.574C509.738 12.9526 509.921 14.2066 510.288 15.336C510.655 16.4653 511.212 17.3673 511.96 18.042C512.708 18.702 513.632 19.032 514.732 19.032C515.509 19.032 516.103 18.966 516.514 18.834C516.939 18.702 517.299 18.5113 517.592 18.262L518.516 16.106L519.902 16.282L519.374 19.406C519.066 19.4206 518.611 19.5233 518.01 19.714C517.482 19.8753 516.969 20 516.47 20.088C515.986 20.1906 515.377 20.242 514.644 20.242Z" fill="white"/>
<path d="M527.081 3.52197H529.501L534.847 18.702L536.211 18.922V20H530.403V18.922L532.229 18.702L531.195 15.446H524.771L523.737 18.702L525.629 18.922V20H520.415V18.922L521.779 18.702L527.081 3.52197ZM528.467 7.04197L527.917 5.10597L527.389 7.08597L525.167 14.148H530.777L528.467 7.04197Z" fill="white"/>
<path d="M539.542 5.01797L537.144 4.75397V3.65397H542.974L546.076 13.554L546.802 16.348L547.462 13.554L550.542 3.65397H556.328V4.75397L553.908 5.01797L555.668 18.68L557.582 18.922V20H551.246V18.922L553.248 18.702L552.258 8.82397L551.796 4.57797L550.872 7.74597L547.198 19.252H545.768L542.204 8.71397L540.906 4.55597L540.51 8.82397L539.63 18.702L541.808 18.922V20H536.066V18.922L537.936 18.702L539.542 5.01797Z" fill="white"/>
<path d="M565.089 3.65397V4.75397L562.933 5.01797V16.062L564.737 13.356L571.073 5.61197V5.01797L569.115 4.75397V3.65397H575.165V4.75397L573.405 5.01797V18.702L575.275 18.922V20H569.137V18.922L571.073 18.702V7.50397L569.445 10.056L562.933 17.91V18.702L565.001 18.922V20H558.797V18.922L560.623 18.702V5.01797L558.863 4.75397V3.65397H565.089Z" fill="white"/>
<path d="M582.947 11.838L578.371 5.03997L576.743 4.75397V3.65397H583.299V4.75397L581.209 5.03997L584.641 10.606L588.073 5.01797L586.137 4.75397V3.65397H591.549V4.75397L589.789 5.03997L585.323 11.42L590.229 18.702L591.901 18.922V20H585.367V18.922L587.413 18.702L583.673 12.696L580.087 18.702L582.287 18.922V20H576.435V18.922L578.305 18.702L582.947 11.838Z" fill="white"/>
<path d="M605.59 16.612C605.531 16.7293 605.355 17.1473 605.062 17.866C604.769 18.57 604.351 19.142 603.808 19.582C603.265 20.022 602.635 20.242 601.916 20.242C601.535 20.242 601.153 20.2053 600.772 20.132C600.405 20.0733 600.105 19.9926 599.87 19.89V18.328L601.432 18.35C602.107 18.35 602.605 18.218 602.928 17.954C603.251 17.6753 603.529 17.184 603.764 16.48L598.22 5.01797L597.032 4.75397V3.65397H602.972V4.75397L600.816 5.01797L604.358 12.674L605.018 14.676L605.744 12.652L608.538 5.01797L606.668 4.75397V3.65397H611.376V4.75397L610.232 5.01797L605.59 16.612Z" fill="white"/>
<path d="M617.401 4.81997L613.617 4.95197L612.847 9.54997H611.396L611.769 3.65397H625.475L625.74 9.54997H624.353L623.628 4.95197L619.821 4.81997V18.702L622.945 18.922V20H614.542V18.922L617.401 18.702V4.81997Z" fill="white"/>
<path d="M633.932 20.242C632.436 20.242 631.167 19.8973 630.126 19.208C629.099 18.5186 628.322 17.5506 627.794 16.304C627.266 15.0426 627.002 13.5833 627.002 11.926C627.002 10.2393 627.317 8.75797 627.948 7.48197C628.593 6.20597 629.473 5.22331 630.588 4.53397C631.703 3.82997 632.957 3.47797 634.35 3.47797C636.638 3.47797 638.383 4.20397 639.586 5.65597C640.803 7.09331 641.412 9.08797 641.412 11.64C641.412 13.356 641.082 14.8666 640.422 16.172C639.777 17.4626 638.882 18.4673 637.738 19.186C636.609 19.89 635.34 20.242 633.932 20.242ZM634.218 4.62197C632.795 4.62197 631.673 5.24531 630.852 6.49197C630.031 7.72397 629.62 9.53531 629.62 11.926C629.62 14.126 630.016 15.8713 630.808 17.162C631.615 18.438 632.737 19.076 634.174 19.076C635.582 19.076 636.697 18.438 637.518 17.162C638.354 15.886 638.772 14.0526 638.772 11.662C638.772 9.44731 638.376 7.72397 637.584 6.49197C636.792 5.24531 635.67 4.62197 634.218 4.62197Z" fill="white"/>
<path d="M658.609 3.65397V4.75397L656.739 5.03997V18.68L658.785 18.922V20H652.581V18.922L654.407 18.68V4.95197H647.367V18.702L649.413 18.922V20H643.253V18.922L645.035 18.702V5.01797L643.165 4.75397V3.65397H658.609Z" fill="white"/>
<path d="M666.021 3.52197H668.441L673.787 18.702L675.151 18.922V20H669.343V18.922L671.169 18.702L670.135 15.446H663.711L662.677 18.702L664.569 18.922V20H659.355V18.922L660.719 18.702L666.021 3.52197ZM667.407 7.04197L666.857 5.10597L666.329 7.08597L664.107 14.148H669.717L667.407 7.04197Z" fill="white"/>
<path d="M683.673 10.936C683.82 9.39597 684.238 8.06131 684.927 6.93197C685.616 5.80264 686.482 4.94464 687.523 4.35797C688.579 3.75664 689.716 3.46331 690.933 3.47797C692.37 3.47797 693.595 3.81531 694.607 4.48997C695.634 5.14997 696.411 6.08131 696.939 7.28397C697.467 8.47197 697.731 9.85797 697.731 11.442C697.731 13.2166 697.416 14.7713 696.785 16.106C696.169 17.426 695.318 18.438 694.233 19.142C693.162 19.846 691.96 20.198 690.625 20.198C689.144 20.198 687.882 19.8753 686.841 19.23C685.8 18.57 685.008 17.646 684.465 16.458C683.922 15.2553 683.644 13.8546 683.629 12.256H680.109V18.68L682.001 18.922V20H675.951V18.922L677.755 18.68V5.01797L675.995 4.75397V3.65397H681.913V4.75397L680.087 5.01797V10.936H683.673ZM690.779 4.66597C689.386 4.66597 688.271 5.27464 687.435 6.49197C686.599 7.70931 686.181 9.53531 686.181 11.97C686.181 14.0966 686.577 15.798 687.369 17.074C688.176 18.35 689.305 18.988 690.757 18.988C692.15 18.988 693.228 18.372 693.991 17.14C694.768 15.8933 695.157 14.06 695.157 11.64C695.157 9.51331 694.776 7.81931 694.013 6.55797C693.25 5.29664 692.172 4.66597 690.779 4.66597Z" fill="white"/>
<path d="M722.441 18.68C722.251 20.8066 722.053 22.6106 721.847 24.092H720.439C720.41 23.5493 720.359 22.7573 720.285 21.716C720.212 20.6893 720.153 20.1173 720.109 20H699.363V18.922L701.431 18.702V5.01797L699.605 4.75397V3.65397H705.699V4.75397L703.741 5.01797V18.702H709.527V5.01797L707.833 4.75397V3.65397H713.509V4.75397L711.793 5.01797V18.702H717.469V5.01797L715.819 4.75397V3.65397H721.605V4.75397L719.801 5.01797V18.68H722.441Z" fill="white"/>
<path d="M730.368 3.65397V4.75397L728.212 5.01797V16.062L730.016 13.356L736.352 5.61197V5.01797L734.394 4.75397V3.65397H740.444V4.75397L738.684 5.01797V18.702L740.554 18.922V20H734.416V18.922L736.352 18.702V7.50397L734.724 10.056L728.212 17.91V18.702L730.28 18.922V20H724.076V18.922L725.902 18.702V5.01797L724.142 4.75397V3.65397H730.368Z" fill="white"/>
<path d="M748.227 11.838L743.651 5.03997L742.023 4.75397V3.65397H748.579V4.75397L746.489 5.03997L749.921 10.606L753.353 5.01797L751.417 4.75397V3.65397H756.829V4.75397L755.069 5.03997L750.603 11.42L755.509 18.702L757.181 18.922V20H750.647V18.922L752.693 18.702L748.953 12.696L745.367 18.702L747.567 18.922V20H741.715V18.922L743.585 18.702L748.227 11.838Z" fill="white"/>
<path d="M761.733 14.764H760.325L759.665 0.573975H762.349L761.733 14.764ZM759.577 18.834C759.577 18.394 759.745 18.02 760.083 17.712C760.42 17.404 760.801 17.25 761.227 17.25C761.696 17.25 762.055 17.382 762.305 17.646C762.554 17.91 762.679 18.24 762.679 18.636C762.679 19.1053 762.51 19.4866 762.173 19.78C761.85 20.0733 761.454 20.22 760.985 20.22C760.603 20.22 760.273 20.0953 759.995 19.846C759.716 19.582 759.577 19.2446 759.577 18.834Z" fill="white"/>
<path d="M783 12C783 13.6568 781.657 15 780 15C778.343 15 777 13.6568 777 12C777 10.3431 778.343 8.99998 780 8.99998C781.657 8.99998 783 10.3431 783 12Z" fill="white"/>
<path d="M802.682 3.65397V4.75397L800.724 5.03997V18.702H806.51V5.01797L804.816 4.75397V3.65397H810.492V4.75397L808.776 5.01797V18.702H814.452V5.01797L812.802 4.75397V3.65397H818.588V4.75397L816.784 5.01797V18.68L818.83 18.922V20H796.346V18.922L798.414 18.702V5.01797L796.588 4.75397V3.65397H802.682Z" fill="white"/>
<path d="M826.038 3.52197H828.458L833.804 18.702L835.168 18.922V20H829.36V18.922L831.186 18.702L830.152 15.446H823.728L822.694 18.702L824.586 18.922V20H819.372V18.922L820.736 18.702L826.038 3.52197ZM827.424 7.04197L826.874 5.10597L826.346 7.08597L824.124 14.148H829.734L827.424 7.04197Z" fill="white"/>
<path d="M841.557 11.838L836.981 5.03997L835.353 4.75397V3.65397H841.909V4.75397L839.819 5.03997L843.251 10.606L846.683 5.01797L844.747 4.75397V3.65397H850.159V4.75397L848.399 5.03997L843.933 11.42L848.839 18.702L850.511 18.922V20H843.977V18.922L846.023 18.702L842.283 12.696L838.697 18.702L840.897 18.922V20H835.045V18.922L836.915 18.702L841.557 11.838Z" fill="white"/>
<path d="M854.161 5.01797L851.763 4.75397V3.65397H857.593L860.695 13.554L861.421 16.348L862.081 13.554L865.161 3.65397H870.947V4.75397L868.527 5.01797L870.287 18.68L872.201 18.922V20H865.865V18.922L867.867 18.702L866.877 8.82397L866.415 4.57797L865.491 7.74597L861.817 19.252H860.387L856.823 8.71397L855.525 4.55597L855.129 8.82397L854.249 18.702L856.427 18.922V20H850.685V18.922L852.555 18.702L854.161 5.01797Z" fill="white"/>
<path d="M878.718 3.52197H881.138L886.484 18.702L887.848 18.922V20H882.04V18.922L883.866 18.702L882.832 15.446H876.408L875.374 18.702L877.266 18.922V20H872.052V18.922L873.416 18.702L878.718 3.52197ZM880.104 7.04197L879.554 5.10597L879.026 7.08597L876.804 14.148H882.414L880.104 7.04197Z" fill="white"/>
<path d="M893.95 4.81997L890.166 4.95197L889.396 9.54997H887.944L888.318 3.65397H902.024L902.288 9.54997H900.902L900.176 4.95197L896.37 4.81997V18.702L899.494 18.922V20H891.09V18.922L893.95 18.702V4.81997Z" fill="white"/>
<path d="M910.921 10.078C912.71 10.078 914.081 10.5033 915.035 11.354C915.988 12.19 916.465 13.3633 916.465 14.874C916.465 16.5606 915.929 17.866 914.859 18.79C913.788 19.714 912.373 20.176 910.613 20.176C910.378 20.176 910.129 20.1686 909.865 20.154C909.615 20.1393 909.359 20.1246 909.095 20.11C908.244 20.0366 907.489 20 906.829 20H903.837V18.922L905.685 18.702V4.99597L903.903 4.70997V3.65397H910.173V4.70997L908.017 4.99597V10.1L910.921 10.078ZM924.737 3.65397V4.75397L922.691 5.01797V18.702L924.737 18.944V20H918.269V18.922L920.315 18.702V5.01797L918.269 4.75397V3.65397H924.737ZM908.017 18.79C908.398 18.8633 908.728 18.9146 909.007 18.944C909.3 18.9733 909.696 18.988 910.195 18.988C911.427 18.988 912.365 18.6433 913.011 17.954C913.671 17.2646 914.001 16.282 914.001 15.006C914.001 13.7886 913.678 12.8793 913.033 12.278C912.387 11.662 911.463 11.354 910.261 11.354L908.017 11.376V18.79Z" fill="white"/>
<path d="M946.277 18.68C946.277 18.8706 946.196 19.8093 946.035 21.496C945.873 23.1826 945.785 24.048 945.771 24.092H944.363C944.333 23.5493 944.267 22.7573 944.165 21.716C944.077 20.6746 944.011 20.1026 943.967 20H933.913C933.854 20.0586 933.707 20.616 933.473 21.672C933.253 22.728 933.084 23.542 932.967 24.114H931.537C931.551 23.5273 931.581 22.6473 931.625 21.474C931.683 20.3153 931.735 19.384 931.779 18.68H933.385C933.737 18.24 934.118 17.5213 934.529 16.524C934.954 15.512 935.335 14.148 935.673 12.432C936.01 10.7013 936.179 8.67731 936.179 6.35997V5.01797L933.913 4.75397V3.65397H946.365V4.75397L944.297 5.01797V18.68H946.277ZM937.543 6.49197C937.557 8.57464 937.433 10.4666 937.169 12.168C936.905 13.8546 936.589 15.248 936.223 16.348C935.871 17.448 935.548 18.2253 935.255 18.68H941.965L941.987 4.92997H937.543V6.49197Z" fill="white"/>
<path d="M950.135 5.01797L948.331 4.75397V3.65397H951.301C951.8 3.65397 952.43 3.62464 953.193 3.56597C953.897 3.50731 954.418 3.47797 954.755 3.47797C956.779 3.47797 958.224 3.79331 959.089 4.42397C959.969 5.05464 960.409 5.97864 960.409 7.19597C960.409 8.23731 960.108 9.13197 959.507 9.87997C958.906 10.628 958.084 11.0973 957.043 11.288C958.451 11.2586 959.558 11.5886 960.365 12.278C961.172 12.9673 961.575 13.906 961.575 15.094C961.575 16.5753 961.047 17.7853 959.991 18.724C958.95 19.6626 957.219 20.132 954.799 20.132C954.271 20.132 953.765 20.11 953.281 20.066C952.137 20.022 951.455 20 951.235 20H948.309V18.922L950.135 18.702V5.01797ZM952.467 10.87C952.672 10.8846 953.09 10.892 953.721 10.892H954.931C955.958 10.892 956.735 10.606 957.263 10.034C957.791 9.46197 958.055 8.64797 958.055 7.59197C958.055 6.56531 957.791 5.81731 957.263 5.34797C956.735 4.86397 955.833 4.62197 954.557 4.62197C954.029 4.62197 953.486 4.65131 952.929 4.70997L952.467 4.75397V10.87ZM952.467 18.768C952.804 18.8853 953.567 18.944 954.755 18.944C956.236 18.944 957.307 18.6433 957.967 18.042C958.642 17.426 958.979 16.546 958.979 15.402C958.979 14.2726 958.686 13.4513 958.099 12.938C957.527 12.4246 956.596 12.168 955.305 12.168C953.809 12.168 952.863 12.1826 952.467 12.212V18.768Z" fill="white"/>
<path d="M969.727 3.65397V4.75397L967.571 5.01797V16.062L969.375 13.356L975.711 5.61197V5.01797L973.753 4.75397V3.65397H979.803V4.75397L978.043 5.01797V18.702L979.913 18.922V20H973.775V18.922L975.711 18.702V7.50397L974.083 10.056L967.571 17.91V18.702L969.639 18.922V20H963.435V18.922L965.261 18.702V5.01797L963.501 4.75397V3.65397H969.727Z" fill="white"/>
<path d="M993.13 3.65397L993.284 9.43997H991.81L991.172 4.97397L986.332 4.79797V18.68L990.16 18.922V20H981.536V18.922L983.956 18.68V5.03997L981.602 4.73197V3.65397H993.13Z" fill="white"/>
<path d="M999.976 3.52197H1002.4L1007.74 18.702L1009.11 18.922V20H1003.3V18.922L1005.12 18.702L1004.09 15.446H997.666L996.632 18.702L998.524 18.922V20H993.31V18.922L994.674 18.702L999.976 3.52197ZM1001.36 7.04197L1000.81 5.10597L1000.28 7.08597L998.062 14.148H1003.67L1001.36 7.04197Z" fill="white"/>
<path d="M1017.63 10.936C1017.77 9.39597 1018.19 8.06131 1018.88 6.93197C1019.57 5.80264 1020.44 4.94464 1021.48 4.35797C1022.53 3.75664 1023.67 3.46331 1024.89 3.47797C1026.33 3.47797 1027.55 3.81531 1028.56 4.48997C1029.59 5.14997 1030.37 6.08131 1030.89 7.28397C1031.42 8.47197 1031.69 9.85797 1031.69 11.442C1031.69 13.2166 1031.37 14.7713 1030.74 16.106C1030.12 17.426 1029.27 18.438 1028.19 19.142C1027.12 19.846 1025.91 20.198 1024.58 20.198C1023.1 20.198 1021.84 19.8753 1020.8 19.23C1019.75 18.57 1018.96 17.646 1018.42 16.458C1017.88 15.2553 1017.6 13.8546 1017.58 12.256H1014.06V18.68L1015.96 18.922V20H1009.91V18.922L1011.71 18.68V5.01797L1009.95 4.75397V3.65397H1015.87V4.75397L1014.04 5.01797V10.936H1017.63ZM1024.73 4.66597C1023.34 4.66597 1022.23 5.27464 1021.39 6.49197C1020.55 7.70931 1020.14 9.53531 1020.14 11.97C1020.14 14.0966 1020.53 15.798 1021.32 17.074C1022.13 18.35 1023.26 18.988 1024.71 18.988C1026.11 18.988 1027.18 18.372 1027.95 17.14C1028.72 15.8933 1029.11 14.06 1029.11 11.64C1029.11 9.51331 1028.73 7.81931 1027.97 6.55797C1027.21 5.29664 1026.13 4.66597 1024.73 4.66597Z" fill="white"/>
<path d="M1038.86 4.81997L1035.08 4.95197L1034.31 9.54997H1032.86L1033.23 3.65397H1046.94L1047.2 9.54997H1045.81L1045.09 4.95197L1041.28 4.81997V18.702L1044.41 18.922V20H1036V18.922L1038.86 18.702V4.81997Z" fill="white"/>
<path d="M1055.77 5.01797L1053.97 4.75397V3.65397H1056.94C1057.44 3.65397 1058.07 3.62464 1058.83 3.56597C1059.54 3.50731 1060.06 3.47797 1060.39 3.47797C1062.42 3.47797 1063.86 3.79331 1064.73 4.42397C1065.61 5.05464 1066.05 5.97864 1066.05 7.19597C1066.05 8.23731 1065.75 9.13197 1065.15 9.87997C1064.54 10.628 1063.72 11.0973 1062.68 11.288C1064.09 11.2586 1065.2 11.5886 1066 12.278C1066.81 12.9673 1067.21 13.906 1067.21 15.094C1067.21 16.5753 1066.69 17.7853 1065.63 18.724C1064.59 19.6626 1062.86 20.132 1060.44 20.132C1059.91 20.132 1059.4 20.11 1058.92 20.066C1057.78 20.022 1057.09 20 1056.87 20H1053.95V18.922L1055.77 18.702V5.01797ZM1058.11 10.87C1058.31 10.8846 1058.73 10.892 1059.36 10.892H1060.57C1061.6 10.892 1062.37 10.606 1062.9 10.034C1063.43 9.46197 1063.69 8.64797 1063.69 7.59197C1063.69 6.56531 1063.43 5.81731 1062.9 5.34797C1062.37 4.86397 1061.47 4.62197 1060.2 4.62197C1059.67 4.62197 1059.12 4.65131 1058.57 4.70997L1058.11 4.75397V10.87ZM1058.11 18.768C1058.44 18.8853 1059.21 18.944 1060.39 18.944C1061.87 18.944 1062.95 18.6433 1063.61 18.042C1064.28 17.426 1064.62 16.546 1064.62 15.402C1064.62 14.2726 1064.32 13.4513 1063.74 12.938C1063.17 12.4246 1062.23 12.168 1060.94 12.168C1059.45 12.168 1058.5 12.1826 1058.11 12.212V18.768Z" fill="white"/>
<path d="M1084.47 3.65397V4.75397L1082.6 5.03997V18.68L1084.65 18.922V20H1078.45V18.922L1080.27 18.68V4.95197H1073.23V18.702L1075.28 18.922V20H1069.12V18.922L1070.9 18.702V5.01797L1069.03 4.75397V3.65397H1084.47Z" fill="white"/>
<path d="M1088.34 5.01797L1086.54 4.75397V3.65397H1097.74L1098.05 7.06397H1096.79L1096.15 4.92997L1090.7 4.79797V11.002L1094.37 10.936L1094.68 9.10997H1095.89V14.17H1094.68L1094.37 12.278L1090.7 12.212V18.768L1096.9 18.548L1098.07 15.776L1099.37 16.172L1098.73 20H1086.52V18.922L1088.34 18.702V5.01797Z" fill="white"/>
<path d="M1102.72 5.01797L1101 4.75397V3.65397H1103.93C1104.46 3.65397 1104.98 3.63197 1105.49 3.58797C1106.28 3.52931 1107.03 3.49997 1107.73 3.49997C1109.86 3.51464 1111.36 3.91064 1112.24 4.68797C1113.12 5.46531 1113.56 6.63864 1113.56 8.20797C1113.56 9.38131 1113.29 10.4006 1112.75 11.266C1112.21 12.1313 1111.45 12.7913 1110.48 13.246C1109.53 13.7006 1108.43 13.928 1107.18 13.928C1106.76 13.928 1106.33 13.9206 1105.89 13.906C1105.45 13.8766 1105.17 13.8546 1105.07 13.84V18.68L1108.09 18.922V20H1100.89V18.922L1102.72 18.702V5.01797ZM1105.07 12.63C1105.48 12.7033 1106.19 12.74 1107.18 12.74C1108.34 12.74 1109.28 12.388 1110 11.684C1110.73 10.98 1111.1 9.82864 1111.1 8.22997C1111.1 6.96864 1110.78 6.06664 1110.15 5.52397C1109.52 4.96664 1108.54 4.68797 1107.21 4.68797C1106.74 4.68797 1106.24 4.71731 1105.71 4.77597C1105.39 4.80531 1105.17 4.81997 1105.07 4.81997V12.63Z" fill="white"/>
<path d="M1116.96 5.01797L1115.16 4.75397V3.65397H1126.36L1126.66 7.06397H1125.41L1124.77 4.92997L1119.32 4.79797V11.002L1122.99 10.936L1123.3 9.10997H1124.51V14.17H1123.3L1122.99 12.278L1119.32 12.212V18.768L1125.52 18.548L1126.69 15.776L1127.98 16.172L1127.35 20H1115.14V18.922L1116.96 18.702V5.01797Z" fill="white"/>
<path d="M1143.59 18.68C1143.59 18.8706 1143.51 19.8093 1143.35 21.496C1143.19 23.1826 1143.1 24.048 1143.08 24.092H1141.68C1141.65 23.5493 1141.58 22.7573 1141.48 21.716C1141.39 20.6746 1141.32 20.1026 1141.28 20H1131.23C1131.17 20.0586 1131.02 20.616 1130.79 21.672C1130.57 22.728 1130.4 23.542 1130.28 24.114H1128.85C1128.86 23.5273 1128.89 22.6473 1128.94 21.474C1129 20.3153 1129.05 19.384 1129.09 18.68H1130.7C1131.05 18.24 1131.43 17.5213 1131.84 16.524C1132.27 15.512 1132.65 14.148 1132.99 12.432C1133.32 10.7013 1133.49 8.67731 1133.49 6.35997V5.01797L1131.23 4.75397V3.65397H1143.68V4.75397L1141.61 5.01797V18.68H1143.59ZM1134.86 6.49197C1134.87 8.57464 1134.75 10.4666 1134.48 12.168C1134.22 13.8546 1133.9 15.248 1133.54 16.348C1133.18 17.448 1132.86 18.2253 1132.57 18.68H1139.28L1139.3 4.92997H1134.86V6.49197Z" fill="white"/>
<path d="M1152.71 5.01797L1150.97 4.75397V3.65397H1156.96V4.75397L1155.07 5.01797V10.936H1162.81V5.01797L1161.03 4.75397V3.65397H1166.92V4.75397L1165.19 5.01797V18.702L1166.92 18.922V20H1161.01V18.922L1162.81 18.702V12.3H1155.07V18.702L1156.98 18.922V20H1150.93V18.922L1152.71 18.702V5.01797Z" fill="white"/>
<path d="M1170.89 5.01797L1169.08 4.75397V3.65397H1180.28L1180.59 7.06397H1179.33L1178.7 4.92997L1173.24 4.79797V11.002L1176.91 10.936L1177.22 9.10997H1178.43V14.17H1177.22L1176.91 12.278L1173.24 12.212V18.768L1179.44 18.548L1180.61 15.776L1181.91 16.172L1181.27 20H1169.06V18.922L1170.89 18.702V5.01797Z" fill="white"/>
<path d="M1193.98 4.81997L1190.2 4.95197L1189.43 9.54997H1187.97L1188.35 3.65397H1202.05L1202.32 9.54997H1200.93L1200.21 4.95197L1196.4 4.81997V18.702L1199.52 18.922V20H1191.12V18.922L1193.98 18.702V4.81997Z" fill="white"/>
<path d="M1210.51 20.242C1209.01 20.242 1207.75 19.8973 1206.7 19.208C1205.68 18.5186 1204.9 17.5506 1204.37 16.304C1203.84 15.0426 1203.58 13.5833 1203.58 11.926C1203.58 10.2393 1203.9 8.75797 1204.53 7.48197C1205.17 6.20597 1206.05 5.22331 1207.17 4.53397C1208.28 3.82997 1209.53 3.47797 1210.93 3.47797C1213.22 3.47797 1214.96 4.20397 1216.16 5.65597C1217.38 7.09331 1217.99 9.08797 1217.99 11.64C1217.99 13.356 1217.66 14.8666 1217 16.172C1216.35 17.4626 1215.46 18.4673 1214.32 19.186C1213.19 19.89 1211.92 20.242 1210.51 20.242ZM1210.8 4.62197C1209.37 4.62197 1208.25 5.24531 1207.43 6.49197C1206.61 7.72397 1206.2 9.53531 1206.2 11.926C1206.2 14.126 1206.59 15.8713 1207.39 17.162C1208.19 18.438 1209.31 19.076 1210.75 19.076C1212.16 19.076 1213.27 18.438 1214.1 17.162C1214.93 15.886 1215.35 14.0526 1215.35 11.662C1215.35 9.44731 1214.95 7.72397 1214.16 6.49197C1213.37 5.24531 1212.25 4.62197 1210.8 4.62197Z" fill="white"/>
<path d="M1225.22 6.99797C1225.22 9.63797 1225.07 11.97 1224.76 13.994C1224.47 16.0033 1224.02 17.5286 1223.42 18.57C1223.11 19.098 1222.76 19.4866 1222.36 19.736C1221.96 19.9853 1221.5 20.11 1220.95 20.11C1220.25 20.11 1219.73 20.0733 1219.39 20L1219.24 18.218C1219.57 18.262 1220.12 18.284 1220.89 18.284C1221.17 18.284 1221.41 18.2253 1221.61 18.108C1221.82 17.976 1222.01 17.756 1222.18 17.448C1223.3 15.7173 1223.86 12.1533 1223.86 6.75597V5.01797L1221.33 4.75397V3.65397H1234.04V4.75397L1232 5.01797V18.702L1234.17 18.922V20H1227.4V18.922L1229.67 18.68L1229.69 5.01797H1225.22V6.99797Z" fill="white"/>
<path d="M1243.03 10.078C1244.82 10.078 1246.19 10.5033 1247.14 11.354C1248.09 12.19 1248.57 13.3633 1248.57 14.874C1248.57 16.5606 1248.03 17.866 1246.96 18.79C1245.89 19.714 1244.48 20.176 1242.72 20.176C1242.48 20.176 1242.23 20.1686 1241.97 20.154C1241.72 20.1393 1241.46 20.1246 1241.2 20.11C1240.35 20.0366 1239.59 20 1238.93 20H1235.94V18.922L1237.79 18.702V4.99597L1236.01 4.70997V3.65397H1242.28V4.70997L1240.12 4.99597V10.1L1243.03 10.078ZM1240.12 18.79C1240.5 18.8633 1240.83 18.9146 1241.11 18.944C1241.41 18.9733 1241.8 18.988 1242.3 18.988C1243.53 18.988 1244.47 18.6433 1245.12 17.954C1245.78 17.2646 1246.11 16.282 1246.11 15.006C1246.11 13.7886 1245.78 12.8793 1245.14 12.278C1244.49 11.662 1243.57 11.354 1242.37 11.354L1240.12 11.376V18.79Z" fill="white"/>
<path d="M1257.73 11.442C1258.32 11.662 1258.91 12.1533 1259.49 12.916C1260.08 13.664 1260.78 14.6833 1261.6 15.974C1262.16 16.8833 1262.59 17.5506 1262.9 17.976C1263.21 18.3866 1263.47 18.6213 1263.69 18.68L1264.53 18.922V20H1261.8C1261.46 20 1261.08 19.714 1260.66 19.142C1260.25 18.5553 1259.71 17.668 1259.05 16.48C1258.3 15.1453 1257.68 14.1333 1257.18 13.444C1256.68 12.7546 1256.21 12.41 1255.75 12.41H1254.34V18.68L1256.3 18.944V20H1250.27V18.9L1252.06 18.68V5.01797L1250.27 4.75397V3.65397H1256.17V4.75397L1254.34 5.01797V11.354H1256.24L1260.68 5.01797L1258.83 4.75397V3.65397H1264.24V4.75397L1262.51 5.01797L1257.73 11.442Z" fill="white"/>
<path d="M1272.34 20.242C1270.85 20.242 1269.58 19.8973 1268.54 19.208C1267.51 18.5186 1266.73 17.5506 1266.2 16.304C1265.68 15.0426 1265.41 13.5833 1265.41 11.926C1265.41 10.2393 1265.73 8.75797 1266.36 7.48197C1267 6.20597 1267.88 5.22331 1269 4.53397C1270.11 3.82997 1271.37 3.47797 1272.76 3.47797C1275.05 3.47797 1276.79 4.20397 1278 5.65597C1279.21 7.09331 1279.82 9.08797 1279.82 11.64C1279.82 13.356 1279.49 14.8666 1278.83 16.172C1278.19 17.4626 1277.29 18.4673 1276.15 19.186C1275.02 19.89 1273.75 20.242 1272.34 20.242ZM1272.63 4.62197C1271.21 4.62197 1270.08 5.24531 1269.26 6.49197C1268.44 7.72397 1268.03 9.53531 1268.03 11.926C1268.03 14.126 1268.43 15.8713 1269.22 17.162C1270.02 18.438 1271.15 19.076 1272.58 19.076C1273.99 19.076 1275.11 18.438 1275.93 17.162C1276.76 15.886 1277.18 14.0526 1277.18 11.662C1277.18 9.44731 1276.79 7.72397 1275.99 6.49197C1275.2 5.24531 1274.08 4.62197 1272.63 4.62197Z" fill="white"/>
<path d="M1294.32 11.442C1294.91 11.662 1295.49 12.1533 1296.08 12.916C1296.67 13.664 1297.37 14.6833 1298.19 15.974C1298.75 16.8833 1299.18 17.5506 1299.49 17.976C1299.8 18.3866 1300.06 18.6213 1300.28 18.68L1301.12 18.922V20H1298.39C1298.05 20 1297.67 19.714 1297.25 19.142C1296.84 18.5553 1296.3 17.668 1295.64 16.48C1294.89 15.1453 1294.27 14.1333 1293.77 13.444C1293.27 12.7546 1292.79 12.41 1292.34 12.41H1290.93V18.68L1292.89 18.944V20H1286.86V18.9L1288.64 18.68V5.01797L1286.86 4.75397V3.65397H1292.76V4.75397L1290.93 5.01797V11.354H1292.82L1297.27 5.01797L1295.42 4.75397V3.65397H1300.83V4.75397L1299.09 5.01797L1294.32 11.442Z" fill="white"/>
<path d="M1309.68 16.612C1309.62 16.7293 1309.44 17.1473 1309.15 17.866C1308.86 18.57 1308.44 19.142 1307.9 19.582C1307.35 20.022 1306.72 20.242 1306 20.242C1305.62 20.242 1305.24 20.2053 1304.86 20.132C1304.49 20.0733 1304.19 19.9926 1303.96 19.89V18.328L1305.52 18.35C1306.19 18.35 1306.69 18.218 1307.02 17.954C1307.34 17.6753 1307.62 17.184 1307.85 16.48L1302.31 5.01797L1301.12 4.75397V3.65397H1307.06V4.75397L1304.9 5.01797L1308.45 12.674L1309.11 14.676L1309.83 12.652L1312.63 5.01797L1310.76 4.75397V3.65397H1315.46V4.75397L1314.32 5.01797L1309.68 16.612Z" fill="white"/>
<path d="M1321.62 6.99797C1321.62 9.63797 1321.47 11.97 1321.16 13.994C1320.87 16.0033 1320.42 17.5286 1319.82 18.57C1319.51 19.098 1319.16 19.4866 1318.76 19.736C1318.37 19.9853 1317.9 20.11 1317.35 20.11C1316.65 20.11 1316.13 20.0733 1315.79 20L1315.64 18.218C1315.97 18.262 1316.52 18.284 1317.29 18.284C1317.57 18.284 1317.81 18.2253 1318.01 18.108C1318.22 17.976 1318.41 17.756 1318.59 17.448C1319.7 15.7173 1320.26 12.1533 1320.26 6.75597V5.01797L1317.73 4.75397V3.65397H1330.44V4.75397L1328.4 5.01797V18.702L1330.58 18.922V20H1323.8V18.922L1326.07 18.68L1326.09 5.01797H1321.62V6.99797Z" fill="white"/>
<path d="M1339.43 10.078C1341.22 10.078 1342.59 10.5033 1343.54 11.354C1344.49 12.19 1344.97 13.3633 1344.97 14.874C1344.97 16.5606 1344.44 17.866 1343.36 18.79C1342.29 19.714 1340.88 20.176 1339.12 20.176C1338.88 20.176 1338.63 20.1686 1338.37 20.154C1338.12 20.1393 1337.86 20.1246 1337.6 20.11C1336.75 20.0366 1335.99 20 1335.33 20H1332.34V18.922L1334.19 18.702V4.99597L1332.41 4.70997V3.65397H1338.68V4.70997L1336.52 4.99597V10.1L1339.43 10.078ZM1336.52 18.79C1336.9 18.8633 1337.23 18.9146 1337.51 18.944C1337.81 18.9733 1338.2 18.988 1338.7 18.988C1339.93 18.988 1340.87 18.6433 1341.52 17.954C1342.18 17.2646 1342.51 16.282 1342.51 15.006C1342.51 13.7886 1342.18 12.8793 1341.54 12.278C1340.89 11.662 1339.97 11.354 1338.77 11.354L1336.52 11.376V18.79Z" fill="white"/>
<path d="M1351.95 4.81997L1348.17 4.95197L1347.4 9.54997H1345.95L1346.32 3.65397H1360.03L1360.29 9.54997H1358.91L1358.18 4.95197L1354.37 4.81997V18.702L1357.5 18.922V20H1349.09V18.922L1351.95 18.702V4.81997Z" fill="white"/>
<path d="M1369.23 16.612C1369.17 16.7293 1369 17.1473 1368.7 17.866C1368.41 18.57 1367.99 19.142 1367.45 19.582C1366.91 20.022 1366.28 20.242 1365.56 20.242C1365.18 20.242 1364.8 20.2053 1364.41 20.132C1364.05 20.0733 1363.75 19.9926 1363.51 19.89V18.328L1365.07 18.35C1365.75 18.35 1366.25 18.218 1366.57 17.954C1366.89 17.6753 1367.17 17.184 1367.41 16.48L1361.86 5.01797L1360.67 4.75397V3.65397H1366.61V4.75397L1364.46 5.01797L1368 12.674L1368.66 14.676L1369.39 12.652L1372.18 5.01797L1370.31 4.75397V3.65397H1375.02V4.75397L1373.87 5.01797L1369.23 16.612Z" fill="white"/>
<path d="M1377.55 5.01797L1375.83 4.75397V3.65397H1378.76C1379.28 3.65397 1379.8 3.63197 1380.32 3.58797C1381.11 3.52931 1381.86 3.49997 1382.56 3.49997C1384.69 3.51464 1386.19 3.91064 1387.07 4.68797C1387.95 5.46531 1388.39 6.63864 1388.39 8.20797C1388.39 9.38131 1388.12 10.4006 1387.58 11.266C1387.04 12.1313 1386.28 12.7913 1385.31 13.246C1384.36 13.7006 1383.26 13.928 1382.01 13.928C1381.59 13.928 1381.15 13.9206 1380.71 13.906C1380.27 13.8766 1380 13.8546 1379.9 13.84V18.68L1382.91 18.922V20H1375.72V18.922L1377.55 18.702V5.01797ZM1379.9 12.63C1380.31 12.7033 1381.01 12.74 1382.01 12.74C1383.17 12.74 1384.11 12.388 1384.83 11.684C1385.56 10.98 1385.93 9.82864 1385.93 8.22997C1385.93 6.96864 1385.61 6.06664 1384.98 5.52397C1384.35 4.96664 1383.37 4.68797 1382.03 4.68797C1381.56 4.68797 1381.07 4.71731 1380.54 4.77597C1380.22 4.80531 1380 4.81997 1379.9 4.81997V12.63Z" fill="white"/>
<path d="M1397.38 16.612C1397.32 16.7293 1397.14 17.1473 1396.85 17.866C1396.56 18.57 1396.14 19.142 1395.6 19.582C1395.05 20.022 1394.42 20.242 1393.7 20.242C1393.32 20.242 1392.94 20.2053 1392.56 20.132C1392.19 20.0733 1391.89 19.9926 1391.66 19.89V18.328L1393.22 18.35C1393.89 18.35 1394.39 18.218 1394.72 17.954C1395.04 17.6753 1395.32 17.184 1395.55 16.48L1390.01 5.01797L1388.82 4.75397V3.65397H1394.76V4.75397L1392.6 5.01797L1396.15 12.674L1396.81 14.676L1397.53 12.652L1400.33 5.01797L1398.46 4.75397V3.65397H1403.16V4.75397L1402.02 5.01797L1397.38 16.612Z" fill="white"/>
<path d="M1406.59 16.7C1407.09 16.7 1407.5 16.942 1407.82 17.426C1408.15 17.8953 1408.31 18.5406 1408.31 19.362C1408.31 20.198 1408.18 21.0046 1407.91 21.782C1407.65 22.5593 1407.32 23.2193 1406.92 23.762C1406.53 24.3193 1406.14 24.708 1405.76 24.928H1405.73L1404.99 24.4V24.158C1405.28 23.9233 1405.57 23.41 1405.87 22.618C1406.17 21.8406 1406.33 21.1 1406.33 20.396C1406.33 20.176 1406.28 20 1406.2 19.868C1406.12 19.7213 1406 19.5526 1405.82 19.362C1405.62 19.142 1405.46 18.9366 1405.36 18.746C1405.26 18.5553 1405.21 18.2986 1405.21 17.976C1405.21 17.5946 1405.32 17.2866 1405.56 17.052C1405.81 16.8173 1406.12 16.7 1406.48 16.7H1406.59Z" fill="white"/>
<path d="M1418.28 5.01797L1416.54 4.75397V3.65397H1422.53V4.75397L1420.63 5.01797V10.936H1428.38V5.01797L1426.6 4.75397V3.65397H1432.49V4.75397L1430.75 5.01797V18.702L1432.49 18.922V20H1426.57V18.922L1428.38 18.702V12.3H1420.63V18.702L1422.55 18.922V20H1416.5V18.922L1418.28 18.702V5.01797Z" fill="white"/>
<path d="M1441.3 20.242C1439.8 20.242 1438.53 19.8973 1437.49 19.208C1436.46 18.5186 1435.69 17.5506 1435.16 16.304C1434.63 15.0426 1434.37 13.5833 1434.37 11.926C1434.37 10.2393 1434.68 8.75797 1435.31 7.48197C1435.96 6.20597 1436.84 5.22331 1437.95 4.53397C1439.07 3.82997 1440.32 3.47797 1441.71 3.47797C1444 3.47797 1445.75 4.20397 1446.95 5.65597C1448.17 7.09331 1448.78 9.08797 1448.78 11.64C1448.78 13.356 1448.45 14.8666 1447.79 16.172C1447.14 17.4626 1446.25 18.4673 1445.1 19.186C1443.97 19.89 1442.7 20.242 1441.3 20.242ZM1441.58 4.62197C1440.16 4.62197 1439.04 5.24531 1438.22 6.49197C1437.39 7.72397 1436.98 9.53531 1436.98 11.926C1436.98 14.126 1437.38 15.8713 1438.17 17.162C1438.98 18.438 1440.1 19.076 1441.54 19.076C1442.95 19.076 1444.06 18.438 1444.88 17.162C1445.72 15.886 1446.14 14.0526 1446.14 11.662C1446.14 9.44731 1445.74 7.72397 1444.95 6.49197C1444.16 5.24531 1443.03 4.62197 1441.58 4.62197Z" fill="white"/>
<path d="M1462.08 3.65397V4.75397L1459.93 5.01797V16.062L1461.73 13.356L1468.07 5.61197V5.01797L1466.11 4.75397V3.65397H1472.16V4.75397L1470.4 5.01797V18.702L1472.27 18.922V20H1466.13V18.922L1468.07 18.702V7.50397L1466.44 10.056L1459.93 17.91V18.702L1462 18.922V20H1455.79V18.922L1457.62 18.702V5.01797L1455.86 4.75397V3.65397H1462.08Z" fill="white"/>
<path d="M1479.77 4.31397C1480.14 4.29931 1480.61 4.20397 1481.18 4.02797C1481.83 3.85197 1482.41 3.71997 1482.94 3.63197C1483.48 3.52931 1484.14 3.47797 1484.92 3.47797C1486.48 3.47797 1487.81 3.83731 1488.93 4.55597C1490.04 5.25997 1490.88 6.24997 1491.46 7.52597C1492.04 8.80197 1492.34 10.276 1492.34 11.948C1492.34 13.5906 1492.01 15.0426 1491.37 16.304C1490.72 17.5506 1489.81 18.5186 1488.64 19.208C1487.47 19.8973 1486.11 20.242 1484.57 20.242C1483.95 20.242 1483.42 20.198 1482.96 20.11C1482.51 20.022 1481.99 19.8973 1481.4 19.736C1480.74 19.5306 1480.24 19.428 1479.88 19.428L1479.49 16.172L1481.01 15.93L1481.89 18.108C1482.21 18.3573 1482.59 18.57 1483.03 18.746C1483.48 18.922 1484.1 19.01 1484.88 19.01C1485.8 19.01 1486.62 18.7533 1487.32 18.24C1488.04 17.712 1488.6 16.9493 1489.01 15.952C1489.42 14.94 1489.64 13.73 1489.65 12.322L1482.46 12.52V10.738L1489.59 10.936C1489.44 9.08797 1488.96 7.58464 1488.13 6.42597C1487.33 5.26731 1486.21 4.68797 1484.77 4.68797C1484.02 4.68797 1483.44 4.78331 1483.03 4.97397C1482.62 5.14997 1482.24 5.39197 1481.89 5.69997L1481.29 7.81197H1479.73L1479.77 4.31397Z" fill="white"/>
<path d="M1501.62 11.442C1502.21 11.662 1502.8 12.1533 1503.38 12.916C1503.97 13.664 1504.67 14.6833 1505.49 15.974C1506.05 16.8833 1506.48 17.5506 1506.79 17.976C1507.1 18.3866 1507.36 18.6213 1507.58 18.68L1508.42 18.922V20H1505.69C1505.36 20 1504.97 19.714 1504.55 19.142C1504.14 18.5553 1503.6 17.668 1502.94 16.48C1502.19 15.1453 1501.57 14.1333 1501.07 13.444C1500.57 12.7546 1500.1 12.41 1499.64 12.41H1498.23V18.68L1500.19 18.944V20H1494.16V18.9L1495.95 18.68V5.01797L1494.16 4.75397V3.65397H1500.06V4.75397L1498.23 5.01797V11.354H1500.13L1504.57 5.01797L1502.72 4.75397V3.65397H1508.13V4.75397L1506.4 5.01797L1501.62 11.442Z" fill="white"/>
<path d="M1516.23 20.242C1514.74 20.242 1513.47 19.8973 1512.43 19.208C1511.4 18.5186 1510.62 17.5506 1510.09 16.304C1509.57 15.0426 1509.3 13.5833 1509.3 11.926C1509.3 10.2393 1509.62 8.75797 1510.25 7.48197C1510.89 6.20597 1511.77 5.22331 1512.89 4.53397C1514 3.82997 1515.26 3.47797 1516.65 3.47797C1518.94 3.47797 1520.68 4.20397 1521.89 5.65597C1523.1 7.09331 1523.71 9.08797 1523.71 11.64C1523.71 13.356 1523.38 14.8666 1522.72 16.172C1522.08 17.4626 1521.18 18.4673 1520.04 19.186C1518.91 19.89 1517.64 20.242 1516.23 20.242ZM1516.52 4.62197C1515.1 4.62197 1513.97 5.24531 1513.15 6.49197C1512.33 7.72397 1511.92 9.53531 1511.92 11.926C1511.92 14.126 1512.32 15.8713 1513.11 17.162C1513.92 18.438 1515.04 19.076 1516.47 19.076C1517.88 19.076 1519 18.438 1519.82 17.162C1520.65 15.886 1521.07 14.0526 1521.07 11.662C1521.07 9.44731 1520.68 7.72397 1519.88 6.49197C1519.09 5.24531 1517.97 4.62197 1516.52 4.62197Z" fill="white"/>
<path d="M1527.31 5.01797L1525.58 4.75397V3.65397H1531.56V4.75397L1529.67 5.01797V10.936H1537.41V5.01797L1535.63 4.75397V3.65397H1541.53V4.75397L1539.79 5.01797V18.702L1541.53 18.922V20H1535.61V18.922L1537.41 18.702V12.3H1529.67V18.702L1531.58 18.922V20H1525.53V18.922L1527.31 18.702V5.01797Z" fill="white"/>
<path d="M1550.33 20.242C1548.83 20.242 1547.56 19.8973 1546.52 19.208C1545.5 18.5186 1544.72 17.5506 1544.19 16.304C1543.66 15.0426 1543.4 13.5833 1543.4 11.926C1543.4 10.2393 1543.71 8.75797 1544.34 7.48197C1544.99 6.20597 1545.87 5.22331 1546.98 4.53397C1548.1 3.82997 1549.35 3.47797 1550.75 3.47797C1553.03 3.47797 1554.78 4.20397 1555.98 5.65597C1557.2 7.09331 1557.81 9.08797 1557.81 11.64C1557.81 13.356 1557.48 14.8666 1556.82 16.172C1556.17 17.4626 1555.28 18.4673 1554.13 19.186C1553.01 19.89 1551.74 20.242 1550.33 20.242ZM1550.61 4.62197C1549.19 4.62197 1548.07 5.24531 1547.25 6.49197C1546.43 7.72397 1546.02 9.53531 1546.02 11.926C1546.02 14.126 1546.41 15.8713 1547.2 17.162C1548.01 18.438 1549.13 19.076 1550.57 19.076C1551.98 19.076 1553.09 18.438 1553.91 17.162C1554.75 15.886 1555.17 14.0526 1555.17 11.662C1555.17 9.44731 1554.77 7.72397 1553.98 6.49197C1553.19 5.24531 1552.07 4.62197 1550.61 4.62197Z" fill="white"/>
<path d="M1562.14 5.01797L1559.74 4.75397V3.65397H1565.57L1568.67 13.554L1569.4 16.348L1570.06 13.554L1573.14 3.65397H1578.92V4.75397L1576.5 5.01797L1578.26 18.68L1580.18 18.922V20H1573.84V18.922L1575.84 18.702L1574.85 8.82397L1574.39 4.57797L1573.47 7.74597L1569.79 19.252H1568.36L1564.8 8.71397L1563.5 4.55597L1563.1 8.82397L1562.22 18.702L1564.4 18.922V20H1558.66V18.922L1560.53 18.702L1562.14 5.01797Z" fill="white"/>
<path d="M1587.68 3.65397V4.75397L1585.53 5.01797V16.062L1587.33 13.356L1593.67 5.61197V5.01797L1591.71 4.75397V3.65397H1597.76V4.75397L1596 5.01797V18.702L1597.87 18.922V20H1591.73V18.922L1593.67 18.702V7.50397L1592.04 10.056L1585.53 17.91V18.702L1587.59 18.922V20H1581.39V18.922L1583.22 18.702V5.01797L1581.46 4.75397V3.65397H1587.68Z" fill="white"/>
<path d="M1607.43 11.442C1608.02 11.662 1608.61 12.1533 1609.19 12.916C1609.78 13.664 1610.48 14.6833 1611.31 15.974C1611.86 16.8833 1612.3 17.5506 1612.6 17.976C1612.91 18.3866 1613.18 18.6213 1613.4 18.68L1614.23 18.922V20H1611.5C1611.17 20 1610.78 19.714 1610.36 19.142C1609.95 18.5553 1609.41 17.668 1608.75 16.48C1608.01 15.1453 1607.38 14.1333 1606.88 13.444C1606.38 12.7546 1605.91 12.41 1605.45 12.41H1604.05V18.68L1606 18.944V20H1599.97V18.9L1601.76 18.68V5.01797L1599.97 4.75397V3.65397H1605.87V4.75397L1604.05 5.01797V11.354H1605.94L1610.38 5.01797L1608.53 4.75397V3.65397H1613.94V4.75397L1612.21 5.01797L1607.43 11.442Z" fill="white"/>
<path d="M1622.79 16.612C1622.73 16.7293 1622.56 17.1473 1622.26 17.866C1621.97 18.57 1621.55 19.142 1621.01 19.582C1620.47 20.022 1619.84 20.242 1619.12 20.242C1618.74 20.242 1618.35 20.2053 1617.97 20.132C1617.61 20.0733 1617.31 19.9926 1617.07 19.89V18.328L1618.63 18.35C1619.31 18.35 1619.81 18.218 1620.13 17.954C1620.45 17.6753 1620.73 17.184 1620.97 16.48L1615.42 5.01797L1614.23 4.75397V3.65397H1620.17V4.75397L1618.02 5.01797L1621.56 12.674L1622.22 14.676L1622.95 12.652L1625.74 5.01797L1623.87 4.75397V3.65397H1628.58V4.75397L1627.43 5.01797L1622.79 16.612Z" fill="white"/>
<path d="M1632.73 14.764H1631.32L1630.66 0.573975H1633.35L1632.73 14.764ZM1630.58 18.834C1630.58 18.394 1630.75 18.02 1631.08 17.712C1631.42 17.404 1631.8 17.25 1632.23 17.25C1632.7 17.25 1633.06 17.382 1633.3 17.646C1633.55 17.91 1633.68 18.24 1633.68 18.636C1633.68 19.1053 1633.51 19.4866 1633.17 19.78C1632.85 20.0733 1632.45 20.22 1631.98 20.22C1631.6 20.22 1631.27 20.0953 1630.99 19.846C1630.72 19.582 1630.58 19.2446 1630.58 18.834Z" fill="white"/>
<path d="M1654 12C1654 13.6568 1652.66 15 1651 15C1649.34 15 1648 13.6568 1648 12C1648 10.3431 1649.34 8.99998 1651 8.99998C1652.66 8.99998 1654 10.3431 1654 12Z" fill="white"/>
<path d="M1672.72 6.99797C1672.72 9.63797 1672.56 11.97 1672.25 13.994C1671.96 16.0033 1671.51 17.5286 1670.91 18.57C1670.6 19.098 1670.25 19.4866 1669.86 19.736C1669.46 19.9853 1668.99 20.11 1668.45 20.11C1667.74 20.11 1667.22 20.0733 1666.89 20L1666.73 18.218C1667.07 18.262 1667.62 18.284 1668.38 18.284C1668.66 18.284 1668.9 18.2253 1669.11 18.108C1669.31 17.976 1669.5 17.756 1669.68 17.448C1670.79 15.7173 1671.35 12.1533 1671.35 6.75597V5.01797L1668.82 4.75397V3.65397H1681.54V4.75397L1679.49 5.01797V18.702L1681.67 18.922V20H1674.89V18.922L1677.16 18.68L1677.18 5.01797H1672.72V6.99797Z" fill="white"/>
<path d="M1685.24 5.01797L1683.44 4.75397V3.65397H1694.63L1694.94 7.06397H1693.69L1693.05 4.92997L1687.59 4.79797V11.002L1691.27 10.936L1691.58 9.10997H1692.79V14.17H1691.58L1691.27 12.278L1687.59 12.212V18.768L1693.8 18.548L1694.96 15.776L1696.26 16.172L1695.62 20H1683.41V18.922L1685.24 18.702V5.01797Z" fill="white"/>
<path d="M1711.87 18.68C1711.87 18.8706 1711.79 19.8093 1711.63 21.496C1711.47 23.1826 1711.38 24.048 1711.36 24.092H1709.95C1709.93 23.5493 1709.86 22.7573 1709.76 21.716C1709.67 20.6746 1709.6 20.1026 1709.56 20H1699.5C1699.45 20.0586 1699.3 20.616 1699.06 21.672C1698.84 22.728 1698.68 23.542 1698.56 24.114H1697.13C1697.14 23.5273 1697.17 22.6473 1697.22 21.474C1697.28 20.3153 1697.33 19.384 1697.37 18.68H1698.98C1699.33 18.24 1699.71 17.5213 1700.12 16.524C1700.55 15.512 1700.93 14.148 1701.26 12.432C1701.6 10.7013 1701.77 8.67731 1701.77 6.35997V5.01797L1699.5 4.75397V3.65397H1711.96V4.75397L1709.89 5.01797V18.68H1711.87ZM1703.13 6.49197C1703.15 8.57464 1703.02 10.4666 1702.76 12.168C1702.5 13.8546 1702.18 15.248 1701.81 16.348C1701.46 17.448 1701.14 18.2253 1700.85 18.68H1707.56L1707.58 4.92997H1703.13V6.49197Z" fill="white"/>
<path d="M1724.49 4.81997L1720.71 4.95197L1719.94 9.54997H1718.48L1718.86 3.65397H1732.56L1732.83 9.54997H1731.44L1730.72 4.95197L1726.91 4.81997V18.702L1730.03 18.922V20H1721.63V18.922L1724.49 18.702V4.81997Z" fill="white"/>
<path d="M1736.22 5.01797L1734.51 4.75397V3.65397H1737.43C1737.96 3.65397 1738.48 3.63197 1739 3.58797C1739.79 3.52931 1740.54 3.49997 1741.24 3.49997C1743.37 3.51464 1744.87 3.91064 1745.75 4.68797C1746.63 5.46531 1747.07 6.63864 1747.07 8.20797C1747.07 9.38131 1746.8 10.4006 1746.26 11.266C1745.71 12.1313 1744.96 12.7913 1743.99 13.246C1743.04 13.7006 1741.94 13.928 1740.69 13.928C1740.26 13.928 1739.83 13.9206 1739.39 13.906C1738.95 13.8766 1738.68 13.8546 1738.58 13.84V18.68L1741.59 18.922V20H1734.4V18.922L1736.22 18.702V5.01797ZM1738.58 12.63C1738.99 12.7033 1739.69 12.74 1740.69 12.74C1741.85 12.74 1742.79 12.388 1743.51 11.684C1744.24 10.98 1744.61 9.82864 1744.61 8.22997C1744.61 6.96864 1744.29 6.06664 1743.66 5.52397C1743.03 4.96664 1742.05 4.68797 1740.71 4.68797C1740.24 4.68797 1739.74 4.71731 1739.22 4.77597C1738.89 4.80531 1738.68 4.81997 1738.58 4.81997V12.63Z" fill="white"/>
<path d="M1755.31 20.242C1753.81 20.242 1752.54 19.8973 1751.5 19.208C1750.47 18.5186 1749.7 17.5506 1749.17 16.304C1748.64 15.0426 1748.38 13.5833 1748.38 11.926C1748.38 10.2393 1748.69 8.75797 1749.32 7.48197C1749.97 6.20597 1750.85 5.22331 1751.96 4.53397C1753.08 3.82997 1754.33 3.47797 1755.72 3.47797C1758.01 3.47797 1759.76 4.20397 1760.96 5.65597C1762.18 7.09331 1762.79 9.08797 1762.79 11.64C1762.79 13.356 1762.46 14.8666 1761.8 16.172C1761.15 17.4626 1760.26 18.4673 1759.11 19.186C1757.98 19.89 1756.71 20.242 1755.31 20.242ZM1755.59 4.62197C1754.17 4.62197 1753.05 5.24531 1752.23 6.49197C1751.41 7.72397 1750.99 9.53531 1750.99 11.926C1750.99 14.126 1751.39 15.8713 1752.18 17.162C1752.99 18.438 1754.11 19.076 1755.55 19.076C1756.96 19.076 1758.07 18.438 1758.89 17.162C1759.73 15.886 1760.15 14.0526 1760.15 11.662C1760.15 9.44731 1759.75 7.72397 1758.96 6.49197C1758.17 5.24531 1757.04 4.62197 1755.59 4.62197Z" fill="white"/>
<path d="M1766.39 5.01797L1764.65 4.75397V3.65397H1770.63V4.75397L1768.74 5.01797V10.936H1776.49V5.01797L1774.7 4.75397V3.65397H1780.6V4.75397L1778.86 5.01797V18.702L1780.6 18.922V20H1774.68V18.922L1776.49 18.702V12.3H1768.74V18.702L1770.66 18.922V20H1764.61V18.922L1766.39 18.702V5.01797Z" fill="white"/>
<path d="M1790.15 16.612C1790.09 16.7293 1789.92 17.1473 1789.62 17.866C1789.33 18.57 1788.91 19.142 1788.37 19.582C1787.83 20.022 1787.2 20.242 1786.48 20.242C1786.1 20.242 1785.71 20.2053 1785.33 20.132C1784.97 20.0733 1784.67 19.9926 1784.43 19.89V18.328L1785.99 18.35C1786.67 18.35 1787.17 18.218 1787.49 17.954C1787.81 17.6753 1788.09 17.184 1788.32 16.48L1782.78 5.01797L1781.59 4.75397V3.65397H1787.53V4.75397L1785.38 5.01797L1788.92 12.674L1789.58 14.676L1790.3 12.652L1793.1 5.01797L1791.23 4.75397V3.65397H1795.94V4.75397L1794.79 5.01797L1790.15 16.612Z" fill="white"/>
<path d="M1802.09 6.99797C1802.09 9.63797 1801.94 11.97 1801.63 13.994C1801.34 16.0033 1800.89 17.5286 1800.29 18.57C1799.98 19.098 1799.63 19.4866 1799.23 19.736C1798.84 19.9853 1798.37 20.11 1797.83 20.11C1797.12 20.11 1796.6 20.0733 1796.26 20L1796.11 18.218C1796.45 18.262 1797 18.284 1797.76 18.284C1798.04 18.284 1798.28 18.2253 1798.49 18.108C1798.69 17.976 1798.88 17.756 1799.06 17.448C1800.17 15.7173 1800.73 12.1533 1800.73 6.75597V5.01797L1798.2 4.75397V3.65397H1810.92V4.75397L1808.87 5.01797V18.702L1811.05 18.922V20H1804.27V18.922L1806.54 18.68L1806.56 5.01797H1802.09V6.99797Z" fill="white"/>
<path d="M1820.1 20.242C1818.48 20.242 1817.11 19.8973 1815.96 19.208C1814.83 18.504 1813.97 17.5213 1813.39 16.26C1812.8 14.9986 1812.51 13.5173 1812.51 11.816C1812.51 10.1733 1812.85 8.72131 1813.54 7.45997C1814.23 6.19864 1815.18 5.22331 1816.38 4.53397C1817.58 3.82997 1818.93 3.47797 1820.43 3.47797C1821.56 3.47797 1822.91 3.65397 1824.5 4.00597L1825.22 4.13797L1825 8.09797H1823.53L1822.98 5.30397C1822.77 5.12797 1822.41 4.98131 1821.9 4.86397C1821.4 4.73197 1820.79 4.66597 1820.05 4.66597C1819.11 4.66597 1818.28 4.93731 1817.55 5.47997C1816.81 6.00797 1816.23 6.79264 1815.81 7.83397C1815.4 8.87531 1815.19 10.122 1815.19 11.574C1815.19 12.9526 1815.37 14.2066 1815.74 15.336C1816.11 16.4653 1816.67 17.3673 1817.41 18.042C1818.16 18.702 1819.09 19.032 1820.19 19.032C1820.96 19.032 1821.56 18.966 1821.97 18.834C1822.39 18.702 1822.75 18.5113 1823.05 18.262L1823.97 16.106L1825.36 16.282L1824.83 19.406C1824.52 19.4206 1824.06 19.5233 1823.46 19.714C1822.94 19.8753 1822.42 20 1821.92 20.088C1821.44 20.1906 1820.83 20.242 1820.1 20.242Z" fill="white"/>
<path d="M1833.24 12.85C1832.89 13.0993 1832.53 13.5613 1832.16 14.236C1831.81 14.9106 1831.4 15.7906 1830.95 16.876C1830.5 17.9173 1830.12 18.702 1829.83 19.23C1829.55 19.7433 1829.29 20 1829.06 20H1826.07V18.922L1826.92 18.68C1827.14 18.636 1827.37 18.4306 1827.61 18.064C1827.86 17.6826 1828.21 17.0666 1828.68 16.216C1829.17 15.248 1829.62 14.456 1830.03 13.84C1830.44 13.224 1830.85 12.7986 1831.28 12.564C1830.28 12.2853 1829.5 11.7573 1828.93 10.98C1828.37 10.188 1828.09 9.24197 1828.09 8.14197C1828.09 6.38197 1828.61 5.16464 1829.65 4.48997C1830.71 3.81531 1832.21 3.47797 1834.16 3.47797C1834.59 3.47797 1835.14 3.50731 1835.81 3.56597C1836.52 3.62464 1837.05 3.65397 1837.42 3.65397H1840.61V4.75397L1838.76 5.01797V18.702L1840.78 18.922V20H1834.29V18.922L1836.41 18.702V12.85H1833.24ZM1835.83 4.77597C1835.17 4.70264 1834.59 4.66597 1834.07 4.66597C1832.93 4.66597 1832.05 4.90797 1831.43 5.39197C1830.83 5.87597 1830.53 6.74131 1830.53 7.98798C1830.53 9.17597 1830.83 10.0853 1831.43 10.716C1832.05 11.3466 1832.93 11.662 1834.07 11.662C1835.25 11.662 1836.02 11.64 1836.41 11.596V4.84197L1835.83 4.77597Z" fill="white"/>
<path d="M1845.43 16.7C1845.93 16.7 1846.34 16.942 1846.66 17.426C1846.98 17.8953 1847.14 18.5406 1847.14 19.362C1847.14 20.198 1847.01 21.0046 1846.75 21.782C1846.48 22.5593 1846.15 23.2193 1845.76 23.762C1845.36 24.3193 1844.97 24.708 1844.59 24.928H1844.57L1843.82 24.4V24.158C1844.12 23.9233 1844.41 23.41 1844.7 22.618C1845.01 21.8406 1845.16 21.1 1845.16 20.396C1845.16 20.176 1845.12 20 1845.03 19.868C1844.96 19.7213 1844.83 19.5526 1844.66 19.362C1844.45 19.142 1844.3 18.9366 1844.2 18.746C1844.09 18.5553 1844.04 18.2986 1844.04 17.976C1844.04 17.5946 1844.16 17.2866 1844.39 17.052C1844.64 16.8173 1844.95 16.7 1845.32 16.7H1845.43Z" fill="white"/>
<path d="M1866.44 3.65397L1866.6 9.43997H1865.12L1864.49 4.97397L1859.65 4.79797V18.68L1863.47 18.922V20H1854.85V18.922L1857.27 18.68V5.03997L1854.92 4.73197V3.65397H1866.44Z" fill="white"/>
<path d="M1874.59 20.242C1873.09 20.242 1871.82 19.8973 1870.78 19.208C1869.76 18.5186 1868.98 17.5506 1868.45 16.304C1867.92 15.0426 1867.66 13.5833 1867.66 11.926C1867.66 10.2393 1867.97 8.75797 1868.6 7.48197C1869.25 6.20597 1870.13 5.22331 1871.24 4.53397C1872.36 3.82997 1873.61 3.47797 1875.01 3.47797C1877.29 3.47797 1879.04 4.20397 1880.24 5.65597C1881.46 7.09331 1882.07 9.08797 1882.07 11.64C1882.07 13.356 1881.74 14.8666 1881.08 16.172C1880.43 17.4626 1879.54 18.4673 1878.39 19.186C1877.26 19.89 1876 20.242 1874.59 20.242ZM1874.87 4.62197C1873.45 4.62197 1872.33 5.24531 1871.51 6.49197C1870.69 7.72397 1870.28 9.53531 1870.28 11.926C1870.28 14.126 1870.67 15.8713 1871.46 17.162C1872.27 18.438 1873.39 19.076 1874.83 19.076C1876.24 19.076 1877.35 18.438 1878.17 17.162C1879.01 15.886 1879.43 14.0526 1879.43 11.662C1879.43 9.44731 1879.03 7.72397 1878.24 6.49197C1877.45 5.24531 1876.33 4.62197 1874.87 4.62197Z" fill="white"/>
<path d="M1891.1 20.242C1889.49 20.242 1888.11 19.8973 1886.97 19.208C1885.84 18.504 1884.98 17.5213 1884.39 16.26C1883.81 14.9986 1883.51 13.5173 1883.51 11.816C1883.51 10.1733 1883.86 8.72131 1884.55 7.45997C1885.24 6.19864 1886.18 5.22331 1887.39 4.53397C1888.59 3.82997 1889.94 3.47797 1891.43 3.47797C1892.56 3.47797 1893.92 3.65397 1895.5 4.00597L1896.23 4.13797L1896.01 8.09797H1894.54L1893.99 5.30397C1893.78 5.12797 1893.42 4.98131 1892.91 4.86397C1892.41 4.73197 1891.79 4.66597 1891.06 4.66597C1890.12 4.66597 1889.28 4.93731 1888.55 5.47997C1887.82 6.00797 1887.24 6.79264 1886.81 7.83397C1886.4 8.87531 1886.2 10.122 1886.2 11.574C1886.2 12.9526 1886.38 14.2066 1886.75 15.336C1887.11 16.4653 1887.67 17.3673 1888.42 18.042C1889.17 18.702 1890.09 19.032 1891.19 19.032C1891.97 19.032 1892.56 18.966 1892.97 18.834C1893.4 18.702 1893.76 18.5113 1894.05 18.262L1894.98 16.106L1896.36 16.282L1895.83 19.406C1895.53 19.4206 1895.07 19.5233 1894.47 19.714C1893.94 19.8753 1893.43 20 1892.93 20.088C1892.45 20.1906 1891.84 20.242 1891.1 20.242Z" fill="white"/>
<path d="M1913.64 3.65397V4.75397L1911.77 5.03997V18.68L1913.81 18.922V20H1907.61V18.922L1909.44 18.68V4.95197H1902.4V18.702L1904.44 18.922V20H1898.28V18.922L1900.06 18.702V5.01797L1898.19 4.75397V3.65397H1913.64Z" fill="white"/>
<path d="M1922.35 20.242C1920.85 20.242 1919.58 19.8973 1918.54 19.208C1917.52 18.5186 1916.74 17.5506 1916.21 16.304C1915.68 15.0426 1915.42 13.5833 1915.42 11.926C1915.42 10.2393 1915.73 8.75797 1916.36 7.48197C1917.01 6.20597 1917.89 5.22331 1919 4.53397C1920.12 3.82997 1921.37 3.47797 1922.77 3.47797C1925.05 3.47797 1926.8 4.20397 1928 5.65597C1929.22 7.09331 1929.83 9.08797 1929.83 11.64C1929.83 13.356 1929.5 14.8666 1928.84 16.172C1928.19 17.4626 1927.3 18.4673 1926.15 19.186C1925.02 19.89 1923.76 20.242 1922.35 20.242ZM1922.63 4.62197C1921.21 4.62197 1920.09 5.24531 1919.27 6.49197C1918.45 7.72397 1918.04 9.53531 1918.04 11.926C1918.04 14.126 1918.43 15.8713 1919.22 17.162C1920.03 18.438 1921.15 19.076 1922.59 19.076C1924 19.076 1925.11 18.438 1925.93 17.162C1926.77 15.886 1927.19 14.0526 1927.19 11.662C1927.19 9.44731 1926.79 7.72397 1926 6.49197C1925.21 5.24531 1924.09 4.62197 1922.63 4.62197Z" fill="white"/>
<path d="M1945.68 18.68C1945.68 18.8706 1945.6 19.8093 1945.44 21.496C1945.28 23.1826 1945.19 24.048 1945.18 24.092H1943.77C1943.74 23.5493 1943.67 22.7573 1943.57 21.716C1943.48 20.6746 1943.42 20.1026 1943.37 20H1933.32C1933.26 20.0586 1933.11 20.616 1932.88 21.672C1932.66 22.728 1932.49 23.542 1932.37 24.114H1930.94C1930.96 23.5273 1930.99 22.6473 1931.03 21.474C1931.09 20.3153 1931.14 19.384 1931.18 18.68H1932.79C1933.14 18.24 1933.52 17.5213 1933.93 16.524C1934.36 15.512 1934.74 14.148 1935.08 12.432C1935.42 10.7013 1935.58 8.67731 1935.58 6.35997V5.01797L1933.32 4.75397V3.65397H1945.77V4.75397L1943.7 5.01797V18.68H1945.68ZM1936.95 6.49197C1936.96 8.57464 1936.84 10.4666 1936.57 12.168C1936.31 13.8546 1936 15.248 1935.63 16.348C1935.28 17.448 1934.95 18.2253 1934.66 18.68H1941.37L1941.39 4.92997H1936.95V6.49197Z" fill="white"/>
<path d="M1953.08 3.52197H1955.5L1960.85 18.702L1962.21 18.922V20H1956.41V18.922L1958.23 18.702L1957.2 15.446H1950.77L1949.74 18.702L1951.63 18.922V20H1946.42V18.922L1947.78 18.702L1953.08 3.52197ZM1954.47 7.04197L1953.92 5.10597L1953.39 7.08597L1951.17 14.148H1956.78L1954.47 7.04197Z" fill="white"/>
<path d="M1983.63 3.65397V4.75397L1981.76 5.03997V18.68L1983.81 18.922V20H1977.61V18.922L1979.43 18.68V4.95197H1972.39V18.702L1974.44 18.922V20H1968.28V18.922L1970.06 18.702V5.01797L1968.19 4.75397V3.65397H1983.63Z" fill="white"/>
<path d="M1987.55 5.01797L1985.83 4.75397V3.65397H1988.76C1989.29 3.65397 1989.81 3.63197 1990.32 3.58797C1991.11 3.52931 1991.86 3.49997 1992.56 3.49997C1994.69 3.51464 1996.19 3.91064 1997.07 4.68797C1997.95 5.46531 1998.39 6.63864 1998.39 8.20797C1998.39 9.38131 1998.12 10.4006 1997.58 11.266C1997.04 12.1313 1996.28 12.7913 1995.31 13.246C1994.36 13.7006 1993.26 13.928 1992.01 13.928C1991.59 13.928 1991.16 13.9206 1990.72 13.906C1990.28 13.8766 1990 13.8546 1989.9 13.84V18.68L1992.92 18.922V20H1985.72V18.922L1987.55 18.702V5.01797ZM1989.9 12.63C1990.31 12.7033 1991.02 12.74 1992.01 12.74C1993.17 12.74 1994.11 12.388 1994.83 11.684C1995.56 10.98 1995.93 9.82864 1995.93 8.22997C1995.93 6.96864 1995.61 6.06664 1994.98 5.52397C1994.35 4.96664 1993.37 4.68797 1992.04 4.68797C1991.57 4.68797 1991.07 4.71731 1990.54 4.77597C1990.22 4.80531 1990 4.81997 1989.9 4.81997V12.63Z" fill="white"/>
<path d="M2006.32 3.65397V4.75397L2004.17 5.01797V16.062L2005.97 13.356L2012.31 5.61197V5.01797L2010.35 4.75397V3.65397H2016.4V4.75397L2014.64 5.01797V18.702L2016.51 18.922V20H2010.37V18.922L2012.31 18.702V7.50397L2010.68 10.056L2004.17 17.91V18.702L2006.24 18.922V20H2000.03V18.922L2001.86 18.702V5.01797L2000.1 4.75397V3.65397H2006.32Z" fill="white"/>
<path d="M2025.83 20.242C2024.22 20.242 2022.84 19.8973 2021.7 19.208C2020.57 18.504 2019.71 17.5213 2019.12 16.26C2018.53 14.9986 2018.24 13.5173 2018.24 11.816C2018.24 10.1733 2018.59 8.72131 2019.28 7.45997C2019.96 6.19864 2020.91 5.22331 2022.11 4.53397C2023.32 3.82997 2024.67 3.47797 2026.16 3.47797C2027.29 3.47797 2028.65 3.65397 2030.23 4.00597L2030.96 4.13797L2030.74 8.09797H2029.26L2028.71 5.30397C2028.51 5.12797 2028.15 4.98131 2027.64 4.86397C2027.14 4.73197 2026.52 4.66597 2025.79 4.66597C2024.85 4.66597 2024.01 4.93731 2023.28 5.47997C2022.55 6.00797 2021.97 6.79264 2021.54 7.83397C2021.13 8.87531 2020.93 10.122 2020.93 11.574C2020.93 12.9526 2021.11 14.2066 2021.48 15.336C2021.84 16.4653 2022.4 17.3673 2023.15 18.042C2023.9 18.702 2024.82 19.032 2025.92 19.032C2026.7 19.032 2027.29 18.966 2027.7 18.834C2028.13 18.702 2028.49 18.5113 2028.78 18.262L2029.7 16.106L2031.09 16.282L2030.56 19.406C2030.25 19.4206 2029.8 19.5233 2029.2 19.714C2028.67 19.8753 2028.16 20 2027.66 20.088C2027.17 20.1906 2026.56 20.242 2025.83 20.242Z" fill="white"/>
<path d="M2038.97 12.85C2038.62 13.0993 2038.26 13.5613 2037.89 14.236C2037.54 14.9106 2037.14 15.7906 2036.68 16.876C2036.23 17.9173 2035.86 18.702 2035.56 19.23C2035.28 19.7433 2035.03 20 2034.79 20H2031.8V18.922L2032.66 18.68C2032.88 18.636 2033.11 18.4306 2033.34 18.064C2033.59 17.6826 2033.95 17.0666 2034.42 16.216C2034.9 15.248 2035.35 14.456 2035.76 13.84C2036.17 13.224 2036.59 12.7986 2037.01 12.564C2036.02 12.2853 2035.23 11.7573 2034.66 10.98C2034.1 10.188 2033.82 9.24197 2033.82 8.14197C2033.82 6.38197 2034.35 5.16464 2035.39 4.48997C2036.44 3.81531 2037.95 3.47797 2039.9 3.47797C2040.32 3.47797 2040.87 3.50731 2041.55 3.56597C2042.25 3.62464 2042.79 3.65397 2043.15 3.65397H2046.34V4.75397L2044.49 5.01797V18.702L2046.52 18.922V20H2040.03V18.922L2042.14 18.702V12.85H2038.97ZM2041.57 4.77597C2040.91 4.70264 2040.32 4.66597 2039.81 4.66597C2038.66 4.66597 2037.78 4.90797 2037.17 5.39197C2036.57 5.87597 2036.27 6.74131 2036.27 7.98798C2036.27 9.17597 2036.57 10.0853 2037.17 10.716C2037.78 11.3466 2038.66 11.662 2039.81 11.662C2040.98 11.662 2041.76 11.64 2042.14 11.596V4.84197L2041.57 4.77597Z" fill="white"/>
<path d="M2063.37 11.464C2063.96 11.684 2064.55 12.1753 2065.13 12.938C2065.72 13.7006 2066.41 14.72 2067.2 15.996C2067.76 16.876 2068.19 17.5286 2068.5 17.954C2068.82 18.3793 2069.09 18.6213 2069.31 18.68L2070.17 18.922V20H2067.42C2067.08 20 2066.71 19.714 2066.3 19.142C2065.9 18.57 2065.36 17.6826 2064.67 16.48C2063.91 15.1453 2063.28 14.1333 2062.78 13.444C2062.28 12.7546 2061.8 12.41 2061.35 12.41H2059.96V18.68L2061.9 18.944V20H2055.87V18.922L2057.72 18.702V12.41H2056.33C2055.88 12.41 2055.39 12.762 2054.88 13.466C2054.37 14.1553 2053.74 15.16 2053.01 16.48C2052.32 17.6826 2051.77 18.57 2051.36 19.142C2050.95 19.714 2050.58 20 2050.24 20H2047.53V18.922L2048.35 18.68C2048.57 18.6213 2048.83 18.3793 2049.14 17.954C2049.46 17.5286 2049.9 16.876 2050.46 15.996C2051.25 14.7053 2051.94 13.6786 2052.53 12.916C2053.13 12.1533 2053.72 11.662 2054.31 11.442L2049.58 5.01797L2047.84 4.75397V3.65397H2053.16V4.75397L2051.45 5.01797L2055.8 11.354H2057.72V5.01797L2055.89 4.75397V3.65397H2061.85V4.75397L2059.96 5.01797V11.354H2061.88L2066.21 5.03997L2064.49 4.75397V3.65397H2069.86V4.75397L2068.1 5.01797L2063.37 11.464Z" fill="white"/>
<path d="M2073.18 5.01797L2071.45 4.75397V3.65397H2077.43V4.75397L2075.54 5.01797V10.936H2083.28V5.01797L2081.5 4.75397V3.65397H2087.4V4.75397L2085.66 5.01797V18.702L2087.4 18.922V20H2081.48V18.922L2083.28 18.702V12.3H2075.54V18.702L2077.45 18.922V20H2071.4V18.922L2073.18 18.702V5.01797Z" fill="white"/>
<path d="M2096.64 10.078C2098.43 10.078 2099.8 10.5033 2100.75 11.354C2101.71 12.19 2102.18 13.3633 2102.18 14.874C2102.18 16.5606 2101.65 17.866 2100.58 18.79C2099.51 19.714 2098.09 20.176 2096.33 20.176C2096.1 20.176 2095.85 20.1686 2095.58 20.154C2095.33 20.1393 2095.08 20.1246 2094.81 20.11C2093.96 20.0366 2093.21 20 2092.55 20H2089.56V18.922L2091.4 18.702V4.99597L2089.62 4.70997V3.65397H2095.89V4.70997L2093.74 4.99597V10.1L2096.64 10.078ZM2110.46 3.65397V4.75397L2108.41 5.01797V18.702L2110.46 18.944V20H2103.99V18.922L2106.03 18.702V5.01797L2103.99 4.75397V3.65397H2110.46ZM2093.74 18.79C2094.12 18.8633 2094.45 18.9146 2094.73 18.944C2095.02 18.9733 2095.41 18.988 2095.91 18.988C2097.15 18.988 2098.08 18.6433 2098.73 17.954C2099.39 17.2646 2099.72 16.282 2099.72 15.006C2099.72 13.7886 2099.4 12.8793 2098.75 12.278C2098.11 11.662 2097.18 11.354 2095.98 11.354L2093.74 11.376V18.79Z" fill="white"/>
<path d="M2114.48 5.01797L2112.67 4.75397V3.65397H2123.87L2124.18 7.06397H2122.92L2122.29 4.92997L2116.83 4.79797V11.002L2120.5 10.936L2120.81 9.10997H2122.02V14.17H2120.81L2120.5 12.278L2116.83 12.212V18.768L2123.03 18.548L2124.2 15.776L2125.5 16.172L2124.86 20H2112.65V18.922L2114.48 18.702V5.01797Z" fill="white"/>
<path d="M2132.82 4.18197C2133.05 4.16731 2133.52 4.07931 2134.23 3.91797C2134.89 3.77131 2135.45 3.66131 2135.92 3.58797C2136.39 3.51464 2136.84 3.47797 2137.28 3.47797C2139.12 3.47797 2140.52 3.78597 2141.51 4.40197C2142.49 5.01797 2142.98 5.94931 2142.98 7.19597C2142.98 8.36931 2142.61 9.30797 2141.86 10.012C2141.13 10.716 2140.24 11.1706 2139.2 11.376C2140.56 11.4053 2141.61 11.7793 2142.34 12.498C2143.09 13.202 2143.47 14.104 2143.47 15.204C2143.47 16.788 2142.97 18.0053 2141.99 18.856C2141.02 19.7066 2139.48 20.132 2137.35 20.132C2136.47 20.132 2135.69 20.0586 2135.02 19.912C2134.34 19.7653 2133.81 19.6333 2133.41 19.516C2133.03 19.384 2132.8 19.3033 2132.71 19.274L2133.1 15.468H2134.2L2134.82 18.328C2135.52 18.7093 2136.51 18.9 2137.77 18.9C2138.75 18.9 2139.49 18.6066 2139.99 18.02C2140.5 17.4333 2140.76 16.5533 2140.76 15.38C2140.76 14.4706 2140.49 13.708 2139.95 13.092C2139.4 12.476 2138.47 12.168 2137.15 12.168H2135.61V10.936H2136.89C2137.5 10.936 2138.08 10.8113 2138.63 10.562C2139.18 10.3126 2139.63 9.93131 2139.97 9.41797C2140.3 8.88997 2140.47 8.25197 2140.47 7.50397C2140.47 6.52131 2140.19 5.80264 2139.64 5.34797C2139.09 4.89331 2138.34 4.66597 2137.37 4.66597C2136.73 4.66597 2136.18 4.74664 2135.72 4.90797C2135.28 5.06931 2134.99 5.27464 2134.84 5.52397L2134.42 7.56997H2133.04L2132.82 4.18197Z" fill="white"/>
<path d="M2150.95 3.52197H2153.37L2158.72 18.702L2160.08 18.922V20H2154.28V18.922L2156.1 18.702L2155.07 15.446H2148.64L2147.61 18.702L2149.5 18.922V20H2144.29V18.922L2145.65 18.702L2150.95 3.52197ZM2152.34 7.04197L2151.79 5.10597L2151.26 7.08597L2149.04 14.148H2154.65L2152.34 7.04197Z" fill="white"/>
<path d="M2168.12 20.242C2166.51 20.242 2165.13 19.8973 2163.99 19.208C2162.86 18.504 2162 17.5213 2161.41 16.26C2160.83 14.9986 2160.53 13.5173 2160.53 11.816C2160.53 10.1733 2160.88 8.72131 2161.57 7.45997C2162.26 6.19864 2163.2 5.22331 2164.4 4.53397C2165.61 3.82997 2166.96 3.47797 2168.45 3.47797C2169.58 3.47797 2170.94 3.65397 2172.52 4.00597L2173.25 4.13797L2173.03 8.09797H2171.55L2171 5.30397C2170.8 5.12797 2170.44 4.98131 2169.93 4.86397C2169.43 4.73197 2168.81 4.66597 2168.08 4.66597C2167.14 4.66597 2166.3 4.93731 2165.57 5.47997C2164.84 6.00797 2164.26 6.79264 2163.83 7.83397C2163.42 8.87531 2163.22 10.122 2163.22 11.574C2163.22 12.9526 2163.4 14.2066 2163.77 15.336C2164.13 16.4653 2164.69 17.3673 2165.44 18.042C2166.19 18.702 2167.11 19.032 2168.21 19.032C2168.99 19.032 2169.58 18.966 2169.99 18.834C2170.42 18.702 2170.78 18.5113 2171.07 18.262L2171.99 16.106L2173.38 16.282L2172.85 19.406C2172.54 19.4206 2172.09 19.5233 2171.49 19.714C2170.96 19.8753 2170.45 20 2169.95 20.088C2169.46 20.1906 2168.86 20.242 2168.12 20.242Z" fill="white"/>
<path d="M2177.02 5.01797L2175.21 4.75397V3.65397H2186.41L2186.72 7.06397H2185.47L2184.83 4.92997L2179.37 4.79797V11.002L2183.05 10.936L2183.35 9.10997H2184.56V14.17H2183.35L2183.05 12.278L2179.37 12.212V18.768L2185.58 18.548L2186.74 15.776L2188.04 16.172L2187.4 20H2175.19V18.922L2177.02 18.702V5.01797Z" fill="white"/>
<path d="M2203.65 18.68C2203.65 18.8706 2203.57 19.8093 2203.4 21.496C2203.24 23.1826 2203.15 24.048 2203.14 24.092H2201.73C2201.7 23.5493 2201.64 22.7573 2201.53 21.716C2201.45 20.6746 2201.38 20.1026 2201.34 20H2191.28C2191.22 20.0586 2191.08 20.616 2190.84 21.672C2190.62 22.728 2190.45 23.542 2190.34 24.114H2188.91C2188.92 23.5273 2188.95 22.6473 2188.99 21.474C2189.05 20.3153 2189.1 19.384 2189.15 18.68H2190.75C2191.11 18.24 2191.49 17.5213 2191.9 16.524C2192.32 15.512 2192.7 14.148 2193.04 12.432C2193.38 10.7013 2193.55 8.67731 2193.55 6.35997V5.01797L2191.28 4.75397V3.65397H2203.73V4.75397L2201.67 5.01797V18.68H2203.65ZM2194.91 6.49197C2194.93 8.57464 2194.8 10.4666 2194.54 12.168C2194.27 13.8546 2193.96 15.248 2193.59 16.348C2193.24 17.448 2192.92 18.2253 2192.62 18.68H2199.33L2199.36 4.92997H2194.91V6.49197Z" fill="white"/>
<path d="M2211.05 3.52197H2213.47L2218.81 18.702L2220.18 18.922V20H2214.37V18.922L2216.19 18.702L2215.16 15.446H2208.74L2207.7 18.702L2209.59 18.922V20H2204.38V18.922L2205.74 18.702L2211.05 3.52197ZM2212.43 7.04197L2211.88 5.10597L2211.35 7.08597L2209.13 14.148H2214.74L2212.43 7.04197Z" fill="white"/>
<path d="M2226.28 4.81997L2222.49 4.95197L2221.72 9.54997H2220.27L2220.65 3.65397H2234.35L2234.62 9.54997H2233.23L2232.5 4.95197L2228.7 4.81997V18.702L2231.82 18.922V20H2223.42V18.922L2226.28 18.702V4.81997Z" fill="white"/>
<path d="M2237.97 5.01797L2236.16 4.75397V3.65397H2247.36L2247.67 7.06397H2246.42L2245.78 4.92997L2240.32 4.79797V11.002L2244 10.936L2244.3 9.10997H2245.51V14.17H2244.3L2244 12.278L2240.32 12.212V18.768L2246.53 18.548L2247.69 15.776L2248.99 16.172L2248.35 20H2236.14V18.922L2237.97 18.702V5.01797Z" fill="white"/>
<path d="M2255.97 6.99797C2255.97 9.63797 2255.82 11.97 2255.51 13.994C2255.22 16.0033 2254.77 17.5286 2254.17 18.57C2253.86 19.098 2253.51 19.4866 2253.11 19.736C2252.72 19.9853 2252.25 20.11 2251.7 20.11C2251 20.11 2250.48 20.0733 2250.14 20L2249.99 18.218C2250.33 18.262 2250.88 18.284 2251.64 18.284C2251.92 18.284 2252.16 18.2253 2252.36 18.108C2252.57 17.976 2252.76 17.756 2252.94 17.448C2254.05 15.7173 2254.61 12.1533 2254.61 6.75597V5.01797L2252.08 4.75397V3.65397H2264.79V4.75397L2262.75 5.01797V18.702L2264.93 18.922V20H2258.15V18.922L2260.42 18.68L2260.44 5.01797H2255.97V6.99797Z" fill="white"/>
<path d="M2273.03 3.65397V4.75397L2270.87 5.01797V16.062L2272.68 13.356L2279.01 5.61197V5.01797L2277.06 4.75397V3.65397H2283.11V4.75397L2281.35 5.01797V18.702L2283.22 18.922V20H2277.08V18.922L2279.01 18.702V7.50397L2277.39 10.056L2270.87 17.91V18.702L2272.94 18.922V20H2266.74V18.922L2268.56 18.702V5.01797L2266.8 4.75397V3.65397H2273.03Z" fill="white"/>
<path d="M2288.73 14.764H2287.32L2286.66 0.573975H2289.35L2288.73 14.764ZM2286.58 18.834C2286.58 18.394 2286.75 18.02 2287.08 17.712C2287.42 17.404 2287.8 17.25 2288.23 17.25C2288.7 17.25 2289.06 17.382 2289.3 17.646C2289.55 17.91 2289.68 18.24 2289.68 18.636C2289.68 19.1053 2289.51 19.4866 2289.17 19.78C2288.85 20.0733 2288.45 20.22 2287.98 20.22C2287.6 20.22 2287.27 20.0953 2286.99 19.846C2286.72 19.582 2286.58 19.2446 2286.58 18.834Z" fill="white"/>
<path d="M2310 12C2310 13.6568 2308.66 15 2307 15C2305.34 15 2304 13.6568 2304 12C2304 10.3431 2305.34 8.99998 2307 8.99998C2308.66 8.99998 2310 10.3431 2310 12Z" fill="white"/>
</svg>
